<svg width="244" height="126" viewBox="0 0 244 126" fill="none" xmlns="http://www.w3.org/2000/svg">
<path d="M3.97017 10.1477C3.28693 10.1477 2.69756 9.99692 2.20206 9.69531C1.70964 9.39062 1.32955 8.96591 1.06179 8.42116C0.797112 7.87334 0.664773 7.23627 0.664773 6.50994C0.664773 5.78362 0.797112 5.14347 1.06179 4.58949C1.32955 4.03243 1.70194 3.59848 2.17898 3.28764C2.65909 2.97372 3.21922 2.81676 3.85938 2.81676C4.22869 2.81676 4.5934 2.87831 4.95348 3.00142C5.31357 3.12453 5.64134 3.32457 5.93679 3.60156C6.23224 3.87547 6.46768 4.23864 6.64311 4.69105C6.81854 5.14347 6.90625 5.70052 6.90625 6.36222V6.82386H1.44034V5.8821H5.7983C5.7983 5.48201 5.71828 5.125 5.55824 4.81108C5.40128 4.49716 5.17661 4.24941 4.88423 4.06783C4.59493 3.88625 4.25331 3.79545 3.85938 3.79545C3.42543 3.79545 3.04995 3.90317 2.73295 4.11861C2.41903 4.33097 2.17744 4.60795 2.00817 4.94957C1.8389 5.29119 1.75426 5.65743 1.75426 6.0483V6.67614C1.75426 7.21165 1.84659 7.6656 2.03125 8.038C2.21899 8.40732 2.47905 8.68892 2.81143 8.88281C3.14382 9.07363 3.53007 9.16903 3.97017 9.16903C4.25639 9.16903 4.51492 9.12902 4.74574 9.04901C4.97964 8.96591 5.18123 8.8428 5.3505 8.67969C5.51977 8.51349 5.65057 8.30729 5.7429 8.06108L6.79546 8.35653C6.68466 8.71354 6.49846 9.02746 6.23686 9.2983C5.97526 9.56605 5.65211 9.77533 5.2674 9.92614C4.88269 10.0739 4.45028 10.1477 3.97017 10.1477ZM9.25064 2.90909L10.9495 5.80824L12.6484 2.90909H13.904L11.6143 6.45455L13.904 10H12.6484L10.9495 7.24858L9.25064 10H7.99495L10.2478 6.45455L7.99495 2.90909H9.25064ZM15.5236 12.6591V2.90909H16.5762V4.03551H16.7055C16.7855 3.91241 16.8963 3.75544 17.0378 3.56463C17.1825 3.37074 17.3887 3.19839 17.6565 3.04759C17.9273 2.8937 18.2935 2.81676 18.7552 2.81676C19.3522 2.81676 19.8785 2.96603 20.334 3.26456C20.7895 3.56309 21.145 3.98627 21.4004 4.53409C21.6559 5.08191 21.7836 5.72822 21.7836 6.47301C21.7836 7.22396 21.6559 7.87488 21.4004 8.42578C21.145 8.9736 20.791 9.39832 20.3386 9.69993C19.8862 9.99846 19.3646 10.1477 18.7736 10.1477C18.3182 10.1477 17.9534 10.0723 17.6795 9.92152C17.4056 9.76764 17.1948 9.59375 17.0471 9.39986C16.8994 9.20289 16.7855 9.03977 16.7055 8.91051H16.6131V12.6591H15.5236ZM16.5947 6.45455C16.5947 6.99006 16.6731 7.46248 16.8301 7.8718C16.9871 8.27805 17.2164 8.59659 17.518 8.82741C17.8196 9.05516 18.1889 9.16903 18.6259 9.16903C19.0814 9.16903 19.4615 9.04901 19.7662 8.80895C20.074 8.56581 20.3048 8.23958 20.4587 7.83026C20.6156 7.41785 20.6941 6.95928 20.6941 6.45455C20.6941 5.95597 20.6172 5.50663 20.4633 5.10653C20.3125 4.70336 20.0832 4.38482 19.7754 4.15092C19.4707 3.91394 19.0876 3.79545 18.6259 3.79545C18.1827 3.79545 17.8103 3.90779 17.5087 4.13246C17.2071 4.35405 16.9794 4.66489 16.8255 5.06499C16.6716 5.462 16.5947 5.92519 16.5947 6.45455ZM26.3912 10.1477C25.751 10.1477 25.1894 9.99538 24.7062 9.6907C24.2261 9.38601 23.8506 8.95975 23.5798 8.41193C23.312 7.86411 23.1781 7.22396 23.1781 6.49148C23.1781 5.75284 23.312 5.10807 23.5798 4.55717C23.8506 4.00627 24.2261 3.57848 24.7062 3.27379C25.1894 2.96911 25.751 2.81676 26.3912 2.81676C27.0314 2.81676 27.5915 2.96911 28.0716 3.27379C28.5548 3.57848 28.9303 4.00627 29.198 4.55717C29.4689 5.10807 29.6043 5.75284 29.6043 6.49148C29.6043 7.22396 29.4689 7.86411 29.198 8.41193C28.9303 8.95975 28.5548 9.38601 28.0716 9.6907C27.5915 9.99538 27.0314 10.1477 26.3912 10.1477ZM26.3912 9.16903C26.8775 9.16903 27.2776 9.04439 27.5915 8.7951C27.9054 8.54581 28.1378 8.21804 28.2886 7.81179C28.4394 7.40554 28.5148 6.96544 28.5148 6.49148C28.5148 6.01752 28.4394 5.57588 28.2886 5.16655C28.1378 4.75722 27.9054 4.42637 27.5915 4.17401C27.2776 3.92164 26.8775 3.79545 26.3912 3.79545C25.9049 3.79545 25.5048 3.92164 25.1909 4.17401C24.877 4.42637 24.6446 4.75722 24.4938 5.16655C24.343 5.57588 24.2676 6.01752 24.2676 6.49148C24.2676 6.96544 24.343 7.40554 24.4938 7.81179C24.6446 8.21804 24.877 8.54581 25.1909 8.7951C25.5048 9.04439 25.9049 9.16903 26.3912 9.16903ZM31.3324 10V2.90909H32.3849V3.98011H32.4588C32.588 3.62926 32.8219 3.34458 33.1605 3.12606C33.499 2.90755 33.8807 2.79829 34.3054 2.79829C34.3854 2.79829 34.4854 2.79983 34.6054 2.80291C34.7255 2.80599 34.8163 2.81061 34.8778 2.81676V3.92472C34.8409 3.91548 34.7562 3.90163 34.6239 3.88317C34.4946 3.86162 34.3577 3.85085 34.213 3.85085C33.8683 3.85085 33.5606 3.92318 33.2897 4.06783C33.022 4.2094 32.8096 4.40637 32.6527 4.65874C32.4988 4.90803 32.4218 5.19271 32.4218 5.51278V10H31.3324ZM39.7624 2.90909V3.83239H36.0877V2.90909H39.7624ZM37.1587 1.21023H38.2482V7.96875C38.2482 8.27652 38.2928 8.50734 38.3821 8.66122C38.4744 8.81203 38.5914 8.91359 38.7329 8.96591C38.8776 9.01515 39.0299 9.03977 39.19 9.03977C39.31 9.03977 39.4085 9.03362 39.4854 9.02131C39.5624 9.00592 39.6239 8.99361 39.6701 8.98438L39.8917 9.96307C39.8178 9.99077 39.7147 10.0185 39.5824 10.0462C39.45 10.0769 39.2823 10.0923 39.0792 10.0923C38.7714 10.0923 38.4698 10.0262 38.1743 9.89382C37.882 9.76148 37.6388 9.5599 37.4449 9.28906C37.2541 9.01823 37.1587 8.67661 37.1587 8.2642V1.21023ZM47.8651 10.1477C47.2742 10.1477 46.7525 9.99846 46.3001 9.69993C45.8477 9.39832 45.4937 8.9736 45.2383 8.42578C44.9828 7.87488 44.8551 7.22396 44.8551 6.47301C44.8551 5.72822 44.9828 5.08191 45.2383 4.53409C45.4937 3.98627 45.8492 3.56309 46.3047 3.26456C46.7602 2.96603 47.2865 2.81676 47.8835 2.81676C48.3452 2.81676 48.7099 2.8937 48.9776 3.04759C49.2485 3.19839 49.4547 3.37074 49.5962 3.56463C49.7409 3.75544 49.8532 3.91241 49.9333 4.03551H50.0256V0.545454H51.1151V10H50.0625V8.91051H49.9333C49.8532 9.03977 49.7394 9.20289 49.5916 9.39986C49.4439 9.59375 49.2331 9.76764 48.9592 9.92152C48.6853 10.0723 48.3206 10.1477 47.8651 10.1477ZM48.0128 9.16903C48.4498 9.16903 48.8191 9.05516 49.1208 8.82741C49.4224 8.59659 49.6516 8.27805 49.8086 7.8718C49.9656 7.46248 50.044 6.99006 50.044 6.45455C50.044 5.92519 49.9671 5.462 49.8132 5.06499C49.6593 4.66489 49.4316 4.35405 49.13 4.13246C48.8284 3.90779 48.456 3.79545 48.0128 3.79545C47.5511 3.79545 47.1664 3.91394 46.8587 4.15092C46.554 4.38482 46.3247 4.70336 46.1708 5.10653C46.02 5.50663 45.9446 5.95597 45.9446 6.45455C45.9446 6.95928 46.0216 7.41785 46.1754 7.83026C46.3324 8.23958 46.5632 8.56581 46.8679 8.80895C47.1757 9.04901 47.5573 9.16903 48.0128 9.16903ZM56.2997 10.1477C55.6165 10.1477 55.0271 9.99692 54.5316 9.69531C54.0392 9.39062 53.6591 8.96591 53.3914 8.42116C53.1267 7.87334 52.9943 7.23627 52.9943 6.50994C52.9943 5.78362 53.1267 5.14347 53.3914 4.58949C53.6591 4.03243 54.0315 3.59848 54.5085 3.28764C54.9887 2.97372 55.5488 2.81676 56.1889 2.81676C56.5583 2.81676 56.923 2.87831 57.2831 3.00142C57.6431 3.12453 57.9709 3.32457 58.2664 3.60156C58.5618 3.87547 58.7973 4.23864 58.9727 4.69105C59.1481 5.14347 59.2358 5.70052 59.2358 6.36222V6.82386H53.7699V5.8821H58.1279C58.1279 5.48201 58.0478 5.125 57.8878 4.81108C57.7308 4.49716 57.5062 4.24941 57.2138 4.06783C56.9245 3.88625 56.5829 3.79545 56.1889 3.79545C55.755 3.79545 55.3795 3.90317 55.0625 4.11861C54.7486 4.33097 54.507 4.60795 54.3377 4.94957C54.1685 5.29119 54.0838 5.65743 54.0838 6.0483V6.67614C54.0838 7.21165 54.1762 7.6656 54.3608 8.038C54.5486 8.40732 54.8086 8.68892 55.141 8.88281C55.4734 9.07363 55.8596 9.16903 56.2997 9.16903C56.586 9.16903 56.8445 9.12902 57.0753 9.04901C57.3092 8.96591 57.5108 8.8428 57.6801 8.67969C57.8493 8.51349 57.9801 8.30729 58.0725 8.06108L59.125 8.35653C59.0142 8.71354 58.828 9.02746 58.5664 9.2983C58.3048 9.56605 57.9817 9.77533 57.597 9.92614C57.2123 10.0739 56.7799 10.1477 56.2997 10.1477ZM64.1158 2.90909V3.83239H60.2934V2.90909H64.1158ZM61.4382 10V1.9304C61.4382 1.52415 61.5337 1.18561 61.7245 0.914772C61.9153 0.643939 62.163 0.440814 62.4677 0.305397C62.7724 0.16998 63.094 0.102272 63.4326 0.102272C63.7003 0.102272 63.9188 0.123816 64.0881 0.166903C64.2574 0.20999 64.3836 0.249999 64.4667 0.286931L64.1527 1.22869C64.0973 1.21023 64.0204 1.18714 63.9219 1.15945C63.8265 1.13175 63.7003 1.1179 63.5434 1.1179C63.1833 1.1179 62.9232 1.20869 62.7632 1.39027C62.6062 1.57185 62.5277 1.83807 62.5277 2.18892V10H61.4382ZM67.5912 10.1662C67.1419 10.1662 66.7341 10.0816 66.3679 9.91229C66.0016 9.73994 65.7108 9.49219 65.4953 9.16903C65.2799 8.8428 65.1722 8.44886 65.1722 7.98722C65.1722 7.58097 65.2522 7.25166 65.4123 6.99929C65.5723 6.74384 65.7862 6.5438 66.0539 6.39915C66.3217 6.2545 66.6172 6.14678 66.9403 6.07599C67.2665 6.00213 67.5943 5.94366 67.9236 5.90057C68.3545 5.84517 68.7038 5.80362 68.9716 5.77592C69.2424 5.74515 69.4394 5.69437 69.5625 5.62358C69.6886 5.55279 69.7517 5.42969 69.7517 5.25426V5.21733C69.7517 4.76184 69.6271 4.40791 69.3778 4.15554C69.1316 3.90317 68.7577 3.77699 68.256 3.77699C67.7359 3.77699 67.3281 3.89086 67.0326 4.11861C66.7372 4.34635 66.5294 4.58949 66.4094 4.84801L65.3753 4.47869C65.56 4.04782 65.8062 3.71236 66.114 3.4723C66.4248 3.22917 66.7633 3.0599 67.1296 2.96449C67.4989 2.866 67.8621 2.81676 68.2191 2.81676C68.4468 2.81676 68.7084 2.84446 69.0039 2.89986C69.3024 2.95218 69.5902 3.06143 69.8672 3.22763C70.1472 3.39382 70.3796 3.64465 70.5642 3.98011C70.7489 4.31558 70.8412 4.76491 70.8412 5.32812V10H69.7517V9.03977H69.6963C69.6225 9.19366 69.4994 9.35831 69.327 9.53374C69.1547 9.70916 68.9254 9.85843 68.6392 9.98153C68.3529 10.1046 68.0036 10.1662 67.5912 10.1662ZM67.7574 9.1875C68.1883 9.1875 68.5515 9.10286 68.8469 8.93359C69.1454 8.76432 69.3701 8.54581 69.5209 8.27805C69.6748 8.0103 69.7517 7.72869 69.7517 7.43324V6.43608C69.7056 6.49148 69.604 6.54226 69.4471 6.58842C69.2932 6.63151 69.1147 6.66998 68.9115 6.70383C68.7115 6.73461 68.5161 6.76231 68.3253 6.78693C68.1375 6.80848 67.9852 6.82694 67.8682 6.84233C67.5851 6.87926 67.3204 6.93928 67.0742 7.02237C66.8311 7.10239 66.6341 7.22396 66.4833 7.38707C66.3355 7.54711 66.2617 7.76562 66.2617 8.04261C66.2617 8.42116 66.4017 8.70739 66.6818 8.90128C66.9649 9.09209 67.3235 9.1875 67.7574 9.1875ZM77.3635 7.10085V2.90909H78.453V10H77.3635V8.79972H77.2897C77.1235 9.1598 76.8649 9.46603 76.5141 9.71839C76.1632 9.96768 75.7201 10.0923 75.1845 10.0923C74.7414 10.0923 74.3474 9.99538 74.0027 9.80149C73.658 9.60452 73.3872 9.30907 73.1902 8.91513C72.9933 8.51811 72.8948 8.01799 72.8948 7.41477V2.90909H73.9843V7.34091C73.9843 7.85795 74.1289 8.27036 74.4182 8.57812C74.7106 8.88589 75.083 9.03977 75.5354 9.03977C75.8062 9.03977 76.0817 8.97053 76.3617 8.83203C76.6449 8.69354 76.8819 8.48118 77.0727 8.19496C77.2666 7.90874 77.3635 7.54403 77.3635 7.10085ZM81.603 0.545454V10H80.5135V0.545454H81.603ZM86.7473 2.90909V3.83239H83.0725V2.90909H86.7473ZM84.1436 1.21023H85.2331V7.96875C85.2331 8.27652 85.2777 8.50734 85.3669 8.66122C85.4593 8.81203 85.5762 8.91359 85.7178 8.96591C85.8624 9.01515 86.0148 9.03977 86.1748 9.03977C86.2948 9.03977 86.3933 9.03362 86.4703 9.02131C86.5472 9.00592 86.6088 8.99361 86.6549 8.98438L86.8765 9.96307C86.8027 9.99077 86.6996 10.0185 86.5672 10.0462C86.4349 10.0769 86.2671 10.0923 86.064 10.0923C85.7563 10.0923 85.4546 10.0262 85.1592 9.89382C84.8668 9.76148 84.6237 9.5599 84.4298 9.28906C84.239 9.01823 84.1436 8.67661 84.1436 8.2642V1.21023ZM95.33 2.90909V3.83239H91.5076V2.90909H95.33ZM92.6525 10V1.9304C92.6525 1.52415 92.7479 1.18561 92.9387 0.914772C93.1295 0.643939 93.3773 0.440814 93.6819 0.305397C93.9866 0.16998 94.3082 0.102272 94.6468 0.102272C94.9145 0.102272 95.1331 0.123816 95.3023 0.166903C95.4716 0.20999 95.5978 0.249999 95.6809 0.286931L95.367 1.22869C95.3116 1.21023 95.2346 1.18714 95.1361 1.15945C95.0407 1.13175 94.9145 1.1179 94.7576 1.1179C94.3975 1.1179 94.1374 1.20869 93.9774 1.39027C93.8204 1.57185 93.742 1.83807 93.742 2.18892V10H92.6525ZM101.391 7.10085V2.90909H102.48V10H101.391V8.79972H101.317C101.151 9.1598 100.892 9.46603 100.541 9.71839C100.19 9.96768 99.7472 10.0923 99.2117 10.0923C98.7685 10.0923 98.3746 9.99538 98.0299 9.80149C97.6852 9.60452 97.4143 9.30907 97.2174 8.91513C97.0204 8.51811 96.9219 8.01799 96.9219 7.41477V2.90909H98.0114V7.34091C98.0114 7.85795 98.1561 8.27036 98.4454 8.57812C98.7377 8.88589 99.1101 9.03977 99.5626 9.03977C99.8334 9.03977 100.109 8.97053 100.389 8.83203C100.672 8.69354 100.909 8.48118 101.1 8.19496C101.294 7.90874 101.391 7.54403 101.391 7.10085ZM105.63 5.73438V10H104.541V2.90909H105.593V4.01705H105.686C105.852 3.65696 106.104 3.36766 106.443 3.14915C106.781 2.92756 107.218 2.81676 107.754 2.81676C108.234 2.81676 108.654 2.91525 109.014 3.11222C109.374 3.30611 109.654 3.60156 109.854 3.99858C110.054 4.39252 110.154 4.8911 110.154 5.49432V10H109.065V5.56818C109.065 5.01113 108.92 4.57718 108.631 4.26633C108.342 3.95241 107.945 3.79545 107.44 3.79545C107.092 3.79545 106.781 3.87086 106.507 4.02166C106.236 4.17247 106.023 4.39252 105.866 4.68182C105.709 4.97112 105.63 5.32197 105.63 5.73438ZM115.091 10.1477C114.426 10.1477 113.854 9.99077 113.373 9.67685C112.893 9.36293 112.524 8.93052 112.266 8.37962C112.007 7.82872 111.878 7.19934 111.878 6.49148C111.878 5.77131 112.01 5.13577 112.275 4.58487C112.543 4.03089 112.915 3.59848 113.392 3.28764C113.872 2.97372 114.432 2.81676 115.072 2.81676C115.571 2.81676 116.02 2.90909 116.42 3.09375C116.82 3.27841 117.148 3.53693 117.404 3.86932C117.659 4.2017 117.818 4.58949 117.879 5.03267H116.79C116.707 4.70952 116.522 4.4233 116.236 4.17401C115.953 3.92164 115.571 3.79545 115.091 3.79545C114.666 3.79545 114.294 3.90625 113.974 4.12784C113.657 4.34635 113.409 4.65566 113.23 5.05575C113.055 5.45277 112.967 5.91903 112.967 6.45455C112.967 7.00237 113.053 7.4794 113.226 7.88565C113.401 8.2919 113.647 8.60736 113.964 8.83203C114.284 9.0567 114.66 9.16903 115.091 9.16903C115.374 9.16903 115.631 9.11979 115.862 9.02131C116.093 8.92282 116.288 8.78125 116.448 8.59659C116.608 8.41193 116.722 8.19034 116.79 7.93182H117.879C117.818 8.35038 117.665 8.72739 117.422 9.06286C117.182 9.39524 116.864 9.65992 116.467 9.85689C116.073 10.0508 115.614 10.1477 115.091 10.1477ZM122.621 2.90909V3.83239H118.946V2.90909H122.621ZM120.017 1.21023H121.106V7.96875C121.106 8.27652 121.151 8.50734 121.24 8.66122C121.333 8.81203 121.45 8.91359 121.591 8.96591C121.736 9.01515 121.888 9.03977 122.048 9.03977C122.168 9.03977 122.267 9.03362 122.344 9.02131C122.421 9.00592 122.482 8.99361 122.528 8.98438L122.75 9.96307C122.676 9.99077 122.573 10.0185 122.441 10.0462C122.308 10.0769 122.141 10.0923 121.937 10.0923C121.63 10.0923 121.328 10.0262 121.033 9.89382C120.74 9.76148 120.497 9.5599 120.303 9.28906C120.112 9.01823 120.017 8.67661 120.017 8.2642V1.21023ZM124.325 10V2.90909H125.414V10H124.325ZM124.878 1.72727C124.666 1.72727 124.483 1.65495 124.329 1.5103C124.178 1.36565 124.103 1.19176 124.103 0.988636C124.103 0.785511 124.178 0.611624 124.329 0.466974C124.483 0.322325 124.666 0.25 124.878 0.25C125.091 0.25 125.272 0.322325 125.423 0.466974C125.577 0.611624 125.654 0.785511 125.654 0.988636C125.654 1.19176 125.577 1.36565 125.423 1.5103C125.272 1.65495 125.091 1.72727 124.878 1.72727ZM130.355 10.1477C129.715 10.1477 129.153 9.99538 128.67 9.6907C128.19 9.38601 127.815 8.95975 127.544 8.41193C127.276 7.86411 127.142 7.22396 127.142 6.49148C127.142 5.75284 127.276 5.10807 127.544 4.55717C127.815 4.00627 128.19 3.57848 128.67 3.27379C129.153 2.96911 129.715 2.81676 130.355 2.81676C130.995 2.81676 131.555 2.96911 132.036 3.27379C132.519 3.57848 132.894 4.00627 133.162 4.55717C133.433 5.10807 133.568 5.75284 133.568 6.49148C133.568 7.22396 133.433 7.86411 133.162 8.41193C132.894 8.95975 132.519 9.38601 132.036 9.6907C131.555 9.99538 130.995 10.1477 130.355 10.1477ZM130.355 9.16903C130.841 9.16903 131.242 9.04439 131.555 8.7951C131.869 8.54581 132.102 8.21804 132.253 7.81179C132.403 7.40554 132.479 6.96544 132.479 6.49148C132.479 6.01752 132.403 5.57588 132.253 5.16655C132.102 4.75722 131.869 4.42637 131.555 4.17401C131.242 3.92164 130.841 3.79545 130.355 3.79545C129.869 3.79545 129.469 3.92164 129.155 4.17401C128.841 4.42637 128.609 4.75722 128.458 5.16655C128.307 5.57588 128.232 6.01752 128.232 6.49148C128.232 6.96544 128.307 7.40554 128.458 7.81179C128.609 8.21804 128.841 8.54581 129.155 8.7951C129.469 9.04439 129.869 9.16903 130.355 9.16903ZM136.386 5.73438V10H135.296V2.90909H136.349V4.01705H136.441C136.607 3.65696 136.86 3.36766 137.198 3.14915C137.537 2.92756 137.974 2.81676 138.509 2.81676C138.989 2.81676 139.41 2.91525 139.77 3.11222C140.13 3.30611 140.41 3.60156 140.61 3.99858C140.81 4.39252 140.91 4.8911 140.91 5.49432V10H139.82V5.56818C139.82 5.01113 139.676 4.57718 139.386 4.26633C139.097 3.95241 138.7 3.79545 138.195 3.79545C137.848 3.79545 137.537 3.87086 137.263 4.02166C136.992 4.17247 136.778 4.39252 136.621 4.68182C136.464 4.97112 136.386 5.32197 136.386 5.73438ZM147.223 10H146.022L149.494 0.545454H150.676L154.147 10H152.947L150.122 2.04119H150.048L147.223 10ZM147.666 6.30682H152.504V7.32244H147.666V6.30682ZM155.685 10V0.545454H156.774V4.03551H156.867C156.947 3.91241 157.058 3.75544 157.199 3.56463C157.344 3.37074 157.55 3.19839 157.818 3.04759C158.089 2.8937 158.455 2.81676 158.916 2.81676C159.514 2.81676 160.04 2.96603 160.495 3.26456C160.951 3.56309 161.306 3.98627 161.562 4.53409C161.817 5.08191 161.945 5.72822 161.945 6.47301C161.945 7.22396 161.817 7.87488 161.562 8.42578C161.306 8.9736 160.952 9.39832 160.5 9.69993C160.047 9.99846 159.526 10.1477 158.935 10.1477C158.479 10.1477 158.115 10.0723 157.841 9.92152C157.567 9.76764 157.356 9.59375 157.208 9.39986C157.061 9.20289 156.947 9.03977 156.867 8.91051H156.737V10H155.685ZM156.756 6.45455C156.756 6.99006 156.834 7.46248 156.991 7.8718C157.148 8.27805 157.378 8.59659 157.679 8.82741C157.981 9.05516 158.35 9.16903 158.787 9.16903C159.243 9.16903 159.623 9.04901 159.927 8.80895C160.235 8.56581 160.466 8.23958 160.62 7.83026C160.777 7.41785 160.855 6.95928 160.855 6.45455C160.855 5.95597 160.778 5.50663 160.625 5.10653C160.474 4.70336 160.244 4.38482 159.937 4.15092C159.632 3.91394 159.249 3.79545 158.787 3.79545C158.344 3.79545 157.972 3.90779 157.67 4.13246C157.368 4.35405 157.141 4.66489 156.987 5.06499C156.833 5.462 156.756 5.92519 156.756 6.45455ZM166.557 10.1477C165.917 10.1477 165.355 9.99538 164.872 9.6907C164.392 9.38601 164.016 8.95975 163.746 8.41193C163.478 7.86411 163.344 7.22396 163.344 6.49148C163.344 5.75284 163.478 5.10807 163.746 4.55717C164.016 4.00627 164.392 3.57848 164.872 3.27379C165.355 2.96911 165.917 2.81676 166.557 2.81676C167.197 2.81676 167.757 2.96911 168.237 3.27379C168.721 3.57848 169.096 4.00627 169.364 4.55717C169.635 5.10807 169.77 5.75284 169.77 6.49148C169.77 7.22396 169.635 7.86411 169.364 8.41193C169.096 8.95975 168.721 9.38601 168.237 9.6907C167.757 9.99538 167.197 10.1477 166.557 10.1477ZM166.557 9.16903C167.043 9.16903 167.443 9.04439 167.757 8.7951C168.071 8.54581 168.304 8.21804 168.454 7.81179C168.605 7.40554 168.681 6.96544 168.681 6.49148C168.681 6.01752 168.605 5.57588 168.454 5.16655C168.304 4.75722 168.071 4.42637 167.757 4.17401C167.443 3.92164 167.043 3.79545 166.557 3.79545C166.071 3.79545 165.671 3.92164 165.357 4.17401C165.043 4.42637 164.811 4.75722 164.66 5.16655C164.509 5.57588 164.434 6.01752 164.434 6.49148C164.434 6.96544 164.509 7.40554 164.66 7.81179C164.811 8.21804 165.043 8.54581 165.357 8.7951C165.671 9.04439 166.071 9.16903 166.557 9.16903ZM175.967 7.10085V2.90909H177.056V10H175.967V8.79972H175.893C175.727 9.1598 175.468 9.46603 175.118 9.71839C174.767 9.96768 174.324 10.0923 173.788 10.0923C173.345 10.0923 172.951 9.99538 172.606 9.80149C172.262 9.60452 171.991 9.30907 171.794 8.91513C171.597 8.51811 171.498 8.01799 171.498 7.41477V2.90909H172.588V7.34091C172.588 7.85795 172.732 8.27036 173.022 8.57812C173.314 8.88589 173.686 9.03977 174.139 9.03977C174.41 9.03977 174.685 8.97053 174.965 8.83203C175.248 8.69354 175.485 8.48118 175.676 8.19496C175.87 7.90874 175.967 7.54403 175.967 7.10085ZM182.201 2.90909V3.83239H178.526V2.90909H182.201ZM179.597 1.21023H180.687V7.96875C180.687 8.27652 180.731 8.50734 180.82 8.66122C180.913 8.81203 181.03 8.91359 181.171 8.96591C181.316 9.01515 181.468 9.03977 181.628 9.03977C181.748 9.03977 181.847 9.03362 181.924 9.02131C182.001 9.00592 182.062 8.99361 182.108 8.98438L182.33 9.96307C182.256 9.99077 182.153 10.0185 182.021 10.0462C181.888 10.0769 181.721 10.0923 181.518 10.0923C181.21 10.0923 180.908 10.0262 180.613 9.89382C180.32 9.76148 180.077 9.5599 179.883 9.28906C179.692 9.01823 179.597 8.67661 179.597 8.2642V1.21023ZM189.223 2.90909C189.167 2.44129 188.943 2.07812 188.549 1.8196C188.155 1.56108 187.672 1.43182 187.099 1.43182C186.681 1.43182 186.314 1.49953 186 1.63494C185.69 1.77036 185.447 1.95656 185.271 2.19354C185.099 2.43052 185.013 2.69981 185.013 3.00142C185.013 3.25379 185.073 3.47076 185.193 3.65234C185.316 3.83085 185.473 3.98011 185.663 4.10014C185.854 4.21709 186.054 4.31404 186.264 4.39098C186.473 4.46484 186.665 4.52486 186.841 4.57102L187.801 4.82955C188.047 4.89418 188.321 4.98343 188.623 5.0973C188.927 5.21117 189.218 5.3666 189.495 5.56357C189.775 5.75746 190.006 6.00675 190.188 6.31143C190.369 6.61612 190.46 6.99006 190.46 7.43324C190.46 7.94413 190.326 8.40578 190.058 8.81818C189.794 9.23059 189.406 9.55836 188.895 9.80149C188.387 10.0446 187.77 10.1662 187.044 10.1662C186.367 10.1662 185.78 10.0569 185.285 9.83842C184.793 9.61991 184.405 9.31522 184.122 8.92436C183.842 8.5335 183.683 8.07955 183.646 7.5625H184.828C184.859 7.91951 184.979 8.21496 185.188 8.44886C185.4 8.67969 185.668 8.85204 185.991 8.96591C186.317 9.0767 186.668 9.1321 187.044 9.1321C187.481 9.1321 187.873 9.06132 188.221 8.91974C188.569 8.77509 188.844 8.57505 189.047 8.3196C189.25 8.06108 189.352 7.75947 189.352 7.41477C189.352 7.10085 189.264 6.84541 189.089 6.64844C188.913 6.45147 188.683 6.29143 188.396 6.16832C188.11 6.04522 187.801 5.9375 187.469 5.84517L186.305 5.51278C185.567 5.30043 184.982 4.99728 184.551 4.60334C184.12 4.2094 183.905 3.69389 183.905 3.05682C183.905 2.52746 184.048 2.06581 184.334 1.67188C184.623 1.27486 185.011 0.967092 185.497 0.748579C185.987 0.526988 186.533 0.416193 187.136 0.416193C187.746 0.416193 188.287 0.525449 188.761 0.743963C189.235 0.959398 189.611 1.25485 189.888 1.63033C190.168 2.0058 190.315 2.43205 190.331 2.90909H189.223ZM195.233 10.1477C194.549 10.1477 193.96 9.99692 193.465 9.69531C192.972 9.39062 192.592 8.96591 192.324 8.42116C192.06 7.87334 191.927 7.23627 191.927 6.50994C191.927 5.78362 192.06 5.14347 192.324 4.58949C192.592 4.03243 192.964 3.59848 193.441 3.28764C193.922 2.97372 194.482 2.81676 195.122 2.81676C195.491 2.81676 195.856 2.87831 196.216 3.00142C196.576 3.12453 196.904 3.32457 197.199 3.60156C197.495 3.87547 197.73 4.23864 197.906 4.69105C198.081 5.14347 198.169 5.70052 198.169 6.36222V6.82386H192.703V5.8821H197.061C197.061 5.48201 196.981 5.125 196.821 4.81108C196.664 4.49716 196.439 4.24941 196.147 4.06783C195.857 3.88625 195.516 3.79545 195.122 3.79545C194.688 3.79545 194.312 3.90317 193.995 4.11861C193.682 4.33097 193.44 4.60795 193.271 4.94957C193.101 5.29119 193.017 5.65743 193.017 6.0483V6.67614C193.017 7.21165 193.109 7.6656 193.294 8.038C193.481 8.40732 193.742 8.68892 194.074 8.88281C194.406 9.07363 194.793 9.16903 195.233 9.16903C195.519 9.16903 195.777 9.12902 196.008 9.04901C196.242 8.96591 196.444 8.8428 196.613 8.67969C196.782 8.51349 196.913 8.30729 197.005 8.06108L198.058 8.35653C197.947 8.71354 197.761 9.02746 197.499 9.2983C197.238 9.56605 196.915 9.77533 196.53 9.92614C196.145 10.0739 195.713 10.1477 195.233 10.1477ZM202.772 10.1477C202.107 10.1477 201.535 9.99077 201.054 9.67685C200.574 9.36293 200.205 8.93052 199.946 8.37962C199.688 7.82872 199.559 7.19934 199.559 6.49148C199.559 5.77131 199.691 5.13577 199.956 4.58487C200.223 4.03089 200.596 3.59848 201.073 3.28764C201.553 2.97372 202.113 2.81676 202.753 2.81676C203.252 2.81676 203.701 2.90909 204.101 3.09375C204.501 3.27841 204.829 3.53693 205.085 3.86932C205.34 4.2017 205.499 4.58949 205.56 5.03267H204.471C204.388 4.70952 204.203 4.4233 203.917 4.17401C203.633 3.92164 203.252 3.79545 202.772 3.79545C202.347 3.79545 201.975 3.90625 201.655 4.12784C201.338 4.34635 201.09 4.65566 200.911 5.05575C200.736 5.45277 200.648 5.91903 200.648 6.45455C200.648 7.00237 200.734 7.4794 200.907 7.88565C201.082 8.2919 201.328 8.60736 201.645 8.83203C201.965 9.0567 202.341 9.16903 202.772 9.16903C203.055 9.16903 203.312 9.11979 203.543 9.02131C203.774 8.92282 203.969 8.78125 204.129 8.59659C204.289 8.41193 204.403 8.19034 204.471 7.93182H205.56C205.499 8.35038 205.346 8.72739 205.103 9.06286C204.863 9.39524 204.544 9.65992 204.147 9.85689C203.754 10.0508 203.295 10.1477 202.772 10.1477ZM210.302 2.90909V3.83239H206.627V2.90909H210.302ZM207.698 1.21023H208.787V7.96875C208.787 8.27652 208.832 8.50734 208.921 8.66122C209.014 8.81203 209.131 8.91359 209.272 8.96591C209.417 9.01515 209.569 9.03977 209.729 9.03977C209.849 9.03977 209.948 9.03362 210.025 9.02131C210.102 9.00592 210.163 8.99361 210.209 8.98438L210.431 9.96307C210.357 9.99077 210.254 10.0185 210.122 10.0462C209.989 10.0769 209.821 10.0923 209.618 10.0923C209.311 10.0923 209.009 10.0262 208.714 9.89382C208.421 9.76148 208.178 9.5599 207.984 9.28906C207.793 9.01823 207.698 8.67661 207.698 8.2642V1.21023ZM212.005 10V2.90909H213.095V10H212.005ZM212.559 1.72727C212.347 1.72727 212.164 1.65495 212.01 1.5103C211.859 1.36565 211.784 1.19176 211.784 0.988636C211.784 0.785511 211.859 0.611624 212.01 0.466974C212.164 0.322325 212.347 0.25 212.559 0.25C212.772 0.25 212.953 0.322325 213.104 0.466974C213.258 0.611624 213.335 0.785511 213.335 0.988636C213.335 1.19176 213.258 1.36565 213.104 1.5103C212.953 1.65495 212.772 1.72727 212.559 1.72727ZM218.036 10.1477C217.396 10.1477 216.834 9.99538 216.351 9.6907C215.871 9.38601 215.495 8.95975 215.225 8.41193C214.957 7.86411 214.823 7.22396 214.823 6.49148C214.823 5.75284 214.957 5.10807 215.225 4.55717C215.495 4.00627 215.871 3.57848 216.351 3.27379C216.834 2.96911 217.396 2.81676 218.036 2.81676C218.676 2.81676 219.236 2.96911 219.716 3.27379C220.2 3.57848 220.575 4.00627 220.843 4.55717C221.114 5.10807 221.249 5.75284 221.249 6.49148C221.249 7.22396 221.114 7.86411 220.843 8.41193C220.575 8.95975 220.2 9.38601 219.716 9.6907C219.236 9.99538 218.676 10.1477 218.036 10.1477ZM218.036 9.16903C218.522 9.16903 218.922 9.04439 219.236 8.7951C219.55 8.54581 219.783 8.21804 219.933 7.81179C220.084 7.40554 220.16 6.96544 220.16 6.49148C220.16 6.01752 220.084 5.57588 219.933 5.16655C219.783 4.75722 219.55 4.42637 219.236 4.17401C218.922 3.92164 218.522 3.79545 218.036 3.79545C217.55 3.79545 217.15 3.92164 216.836 4.17401C216.522 4.42637 216.29 4.75722 216.139 5.16655C215.988 5.57588 215.913 6.01752 215.913 6.49148C215.913 6.96544 215.988 7.40554 216.139 7.81179C216.29 8.21804 216.522 8.54581 216.836 8.7951C217.15 9.04439 217.55 9.16903 218.036 9.16903ZM224.067 5.73438V10H222.977V2.90909H224.03V4.01705H224.122C224.288 3.65696 224.541 3.36766 224.879 3.14915C225.218 2.92756 225.655 2.81676 226.19 2.81676C226.67 2.81676 227.091 2.91525 227.451 3.11222C227.811 3.30611 228.091 3.60156 228.291 3.99858C228.491 4.39252 228.591 4.8911 228.591 5.49432V10H227.501V5.56818C227.501 5.01113 227.357 4.57718 227.067 4.26633C226.778 3.95241 226.381 3.79545 225.876 3.79545C225.529 3.79545 225.218 3.87086 224.944 4.02166C224.673 4.17247 224.459 4.39252 224.302 4.68182C224.145 4.97112 224.067 5.32197 224.067 5.73438ZM231.035 6.01136C231.035 4.84801 231.185 3.77853 231.487 2.80291C231.792 1.82422 232.226 0.924005 232.789 0.102272H233.749C233.527 0.40696 233.32 0.782433 233.126 1.22869C232.935 1.67187 232.767 2.15968 232.623 2.69212C232.478 3.22147 232.364 3.76929 232.281 4.33558C232.201 4.90187 232.161 5.46046 232.161 6.01136C232.161 6.74384 232.232 7.4871 232.373 8.24112C232.515 8.99515 232.706 9.69531 232.946 10.3416C233.186 10.9879 233.454 11.5142 233.749 11.9205H232.789C232.226 11.0987 231.792 10.2 231.487 9.22443C231.185 8.24574 231.035 7.17472 231.035 6.01136ZM237.748 6.01136C237.748 7.17472 237.596 8.24574 237.291 9.22443C236.99 10.2 236.557 11.0987 235.994 11.9205H235.034C235.255 11.6158 235.462 11.2403 235.653 10.794C235.846 10.3509 236.016 9.86458 236.16 9.33523C236.305 8.80279 236.417 8.25343 236.497 7.68714C236.58 7.11778 236.622 6.55919 236.622 6.01136C236.622 5.27888 236.551 4.53563 236.41 3.7816C236.268 3.02758 236.077 2.32741 235.837 1.68111C235.597 1.0348 235.329 0.508522 235.034 0.102272H235.994C236.557 0.924005 236.99 1.82422 237.291 2.80291C237.596 3.77853 237.748 4.84801 237.748 6.01136ZM239.68 6.02983V5.45739C240.194 5.45739 240.552 5.34967 240.755 5.13423C240.961 4.9188 241.065 4.55871 241.065 4.05398V2.5767C241.065 2.15199 241.105 1.78421 241.185 1.47337C241.268 1.16252 241.402 0.90554 241.586 0.702415C241.771 0.49929 242.017 0.348485 242.325 0.25C242.633 0.151515 243.013 0.102272 243.465 0.102272V1.0071C243.108 1.0071 242.827 1.0625 242.62 1.17329C242.417 1.28409 242.273 1.45644 242.186 1.69034C242.103 1.92116 242.062 2.21662 242.062 2.5767V4.4233C242.062 4.66335 242.029 4.88187 241.965 5.07883C241.903 5.2758 241.788 5.44508 241.619 5.58665C241.449 5.72822 241.208 5.83748 240.894 5.91442C240.583 5.99136 240.178 6.02983 239.68 6.02983ZM243.465 11.9205C243.013 11.9205 242.633 11.8712 242.325 11.7727C242.017 11.6742 241.771 11.5234 241.586 11.3203C241.402 11.1172 241.268 10.8602 241.185 10.5494C241.105 10.2385 241.065 9.87074 241.065 9.44602V7.96875C241.065 7.46402 240.961 7.10393 240.755 6.88849C240.552 6.67306 240.194 6.56534 239.68 6.56534V5.9929C240.178 5.9929 240.583 6.03137 240.894 6.10831C241.208 6.18525 241.449 6.29451 241.619 6.43608C241.788 6.57765 241.903 6.74692 241.965 6.94389C242.029 7.14086 242.062 7.35937 242.062 7.59943V9.44602C242.062 9.80611 242.103 10.1016 242.186 10.3324C242.273 10.5632 242.417 10.734 242.62 10.8448C242.827 10.9587 243.108 11.0156 243.465 11.0156V11.9205ZM239.68 6.56534V5.45739H240.769V6.56534H239.68ZM15.8822 29V21.9091H16.9347V22.9801H17.0086C17.1378 22.6293 17.3717 22.3446 17.7103 22.1261C18.0488 21.9076 18.4305 21.7983 18.8552 21.7983C18.9352 21.7983 19.0352 21.7998 19.1552 21.8029C19.2753 21.806 19.3661 21.8106 19.4276 21.8168V22.9247C19.3907 22.9155 19.306 22.9016 19.1737 22.8832C19.0444 22.8616 18.9075 22.8509 18.7628 22.8509C18.4181 22.8509 18.1104 22.9232 17.8395 23.0678C17.5718 23.2094 17.3594 23.4064 17.2025 23.6587C17.0486 23.908 16.9716 24.1927 16.9716 24.5128V29H15.8822ZM23.5413 29.1477C22.858 29.1477 22.2687 28.9969 21.7732 28.6953C21.2807 28.3906 20.9006 27.9659 20.6329 27.4212C20.3682 26.8733 20.2359 26.2363 20.2359 25.5099C20.2359 24.7836 20.3682 24.1435 20.6329 23.5895C20.9006 23.0324 21.273 22.5985 21.7501 22.2876C22.2302 21.9737 22.7903 21.8168 23.4305 21.8168C23.7998 21.8168 24.1645 21.8783 24.5246 22.0014C24.8847 22.1245 25.2124 22.3246 25.5079 22.6016C25.8033 22.8755 26.0388 23.2386 26.2142 23.6911C26.3896 24.1435 26.4773 24.7005 26.4773 25.3622V25.8239H21.0114V24.8821H25.3694C25.3694 24.482 25.2894 24.125 25.1293 23.8111C24.9724 23.4972 24.7477 23.2494 24.4553 23.0678C24.166 22.8862 23.8244 22.7955 23.4305 22.7955C22.9965 22.7955 22.621 22.9032 22.304 23.1186C21.9901 23.331 21.7485 23.608 21.5793 23.9496C21.41 24.2912 21.3254 24.6574 21.3254 25.0483V25.6761C21.3254 26.2116 21.4177 26.6656 21.6023 27.038C21.7901 27.4073 22.0501 27.6889 22.3825 27.8828C22.7149 28.0736 23.1012 28.169 23.5413 28.169C23.8275 28.169 24.086 28.129 24.3168 28.049C24.5507 27.9659 24.7523 27.8428 24.9216 27.6797C25.0909 27.5135 25.2217 27.3073 25.314 27.0611L26.3665 27.3565C26.2558 27.7135 26.0696 28.0275 25.808 28.2983C25.5464 28.5661 25.2232 28.7753 24.8385 28.9261C24.4538 29.0739 24.0214 29.1477 23.5413 29.1477ZM31.2835 21.9091V22.8324H27.6087V21.9091H31.2835ZM28.6798 20.2102H29.7693V26.9688C29.7693 27.2765 29.8139 27.5073 29.9031 27.6612C29.9955 27.812 30.1124 27.9136 30.254 27.9659C30.3986 28.0152 30.551 28.0398 30.711 28.0398C30.8311 28.0398 30.9295 28.0336 31.0065 28.0213C31.0834 28.0059 31.145 27.9936 31.1911 27.9844L31.4127 28.9631C31.3389 28.9908 31.2358 29.0185 31.1034 29.0462C30.9711 29.0769 30.8034 29.0923 30.6002 29.0923C30.2925 29.0923 29.9909 29.0262 29.6954 28.8938C29.403 28.7615 29.1599 28.5599 28.966 28.2891C28.7752 28.0182 28.6798 27.6766 28.6798 27.2642V20.2102ZM37.4561 26.1009V21.9091H38.5456V29H37.4561V27.7997H37.3822C37.216 28.1598 36.9575 28.466 36.6066 28.7184C36.2558 28.9677 35.8126 29.0923 35.2771 29.0923C34.8339 29.0923 34.44 28.9954 34.0953 28.8015C33.7506 28.6045 33.4797 28.3091 33.2828 27.9151C33.0858 27.5181 32.9873 27.018 32.9873 26.4148V21.9091H34.0768V26.3409C34.0768 26.858 34.2215 27.2704 34.5108 27.5781C34.8031 27.8859 35.1755 28.0398 35.6279 28.0398C35.8988 28.0398 36.1742 27.9705 36.4543 27.832C36.7374 27.6935 36.9744 27.4812 37.1652 27.195C37.3591 26.9087 37.4561 26.544 37.4561 26.1009ZM40.606 29V21.9091H41.6586V22.9801H41.7324C41.8617 22.6293 42.0956 22.3446 42.4342 22.1261C42.7727 21.9076 43.1543 21.7983 43.579 21.7983C43.6591 21.7983 43.7591 21.7998 43.8791 21.8029C43.9991 21.806 44.0899 21.8106 44.1515 21.8168V22.9247C44.1145 22.9155 44.0299 22.9016 43.8976 22.8832C43.7683 22.8616 43.6314 22.8509 43.4867 22.8509C43.142 22.8509 42.8342 22.9232 42.5634 23.0678C42.2957 23.2094 42.0833 23.4064 41.9263 23.6587C41.7725 23.908 41.6955 24.1927 41.6955 24.5128V29H40.606ZM46.5974 24.7344V29H45.5079V21.9091H46.5605V23.017H46.6528C46.819 22.657 47.0714 22.3677 47.4099 22.1491C47.7485 21.9276 48.1855 21.8168 48.721 21.8168C49.2011 21.8168 49.6212 21.9152 49.9813 22.1122C50.3414 22.3061 50.6215 22.6016 50.8215 22.9986C51.0216 23.3925 51.1216 23.8911 51.1216 24.4943V29H50.0321V24.5682C50.0321 24.0111 49.8874 23.5772 49.5981 23.2663C49.3088 22.9524 48.9118 22.7955 48.4071 22.7955C48.0593 22.7955 47.7485 22.8709 47.4746 23.0217C47.2037 23.1725 46.9898 23.3925 46.8329 23.6818C46.6759 23.9711 46.5974 24.322 46.5974 24.7344ZM53.5652 25.0114C53.5652 23.848 53.716 22.7785 54.0176 21.8029C54.3223 20.8242 54.7563 19.924 55.3195 19.1023H56.2797C56.0581 19.407 55.8504 19.7824 55.6565 20.2287C55.4657 20.6719 55.2979 21.1597 55.1533 21.6921C55.0086 22.2215 54.8948 22.7693 54.8117 23.3356C54.7316 23.9019 54.6916 24.4605 54.6916 25.0114C54.6916 25.7438 54.7624 26.4871 54.904 27.2411C55.0456 27.9951 55.2364 28.6953 55.4764 29.3416C55.7165 29.9879 55.9843 30.5142 56.2797 30.9205H55.3195C54.7563 30.0987 54.3223 29.2 54.0176 28.2244C53.716 27.2457 53.5652 26.1747 53.5652 25.0114ZM31.0811 44.6761V43.9375L37.0271 40.9091V42.0909L32.466 44.2884L32.503 44.2145V44.3991L32.466 44.3253L37.0271 46.5227V47.7045L31.0811 44.6761ZM44.4242 42.4972L43.4455 42.7741C43.384 42.611 43.2932 42.4525 43.1732 42.2987C43.0562 42.1417 42.8962 42.0124 42.693 41.9109C42.4899 41.8093 42.2299 41.7585 41.9129 41.7585C41.4789 41.7585 41.1173 41.8585 40.828 42.0586C40.5418 42.2556 40.3987 42.5064 40.3987 42.8111C40.3987 43.0819 40.4971 43.2958 40.6941 43.4528C40.8911 43.6097 41.1988 43.7405 41.6174 43.8452L42.67 44.1037C43.304 44.2576 43.7764 44.493 44.0872 44.81C44.3981 45.1239 44.5535 45.5286 44.5535 46.0241C44.5535 46.4304 44.4365 46.7936 44.2026 47.1136C43.9718 47.4337 43.6487 47.6861 43.2332 47.8707C42.8177 48.0554 42.3345 48.1477 41.7836 48.1477C41.0603 48.1477 40.4617 47.9908 39.9878 47.6768C39.5138 47.3629 39.2138 46.9044 39.0876 46.3011L40.1217 46.0426C40.2201 46.4242 40.4063 46.7105 40.6803 46.9013C40.9572 47.0921 41.3189 47.1875 41.7651 47.1875C42.2729 47.1875 42.6761 47.0798 42.9746 46.8643C43.2763 46.6458 43.4271 46.3842 43.4271 46.0795C43.4271 45.8333 43.3409 45.6271 43.1685 45.4609C42.9962 45.2917 42.7315 45.1655 42.3745 45.0824L41.1927 44.8054C40.5433 44.6515 40.0663 44.413 39.7616 44.0898C39.46 43.7636 39.3092 43.3558 39.3092 42.8665C39.3092 42.4664 39.4215 42.1125 39.6462 41.8047C39.8739 41.4969 40.1832 41.2553 40.5741 41.0799C40.968 40.9045 41.4143 40.8168 41.9129 40.8168C42.6146 40.8168 43.1655 40.9706 43.5656 41.2784C43.9687 41.5862 44.255 41.9924 44.4242 42.4972ZM49.2315 48.1477C48.5483 48.1477 47.9589 47.9969 47.4634 47.6953C46.971 47.3906 46.5909 46.9659 46.3231 46.4212C46.0584 45.8733 45.9261 45.2363 45.9261 44.5099C45.9261 43.7836 46.0584 43.1435 46.3231 42.5895C46.5909 42.0324 46.9633 41.5985 47.4403 41.2876C47.9204 40.9737 48.4806 40.8168 49.1207 40.8168C49.49 40.8168 49.8547 40.8783 50.2148 41.0014C50.5749 41.1245 50.9027 41.3246 51.1981 41.6016C51.4936 41.8755 51.729 42.2386 51.9044 42.6911C52.0799 43.1435 52.1676 43.7005 52.1676 44.3622V44.8239H46.7017V43.8821H51.0596C51.0596 43.482 50.9796 43.125 50.8196 42.8111C50.6626 42.4972 50.4379 42.2494 50.1456 42.0678C49.8563 41.8862 49.5146 41.7955 49.1207 41.7955C48.6868 41.7955 48.3113 41.9032 47.9943 42.1186C47.6804 42.331 47.4388 42.608 47.2695 42.9496C47.1002 43.2912 47.0156 43.6574 47.0156 44.0483V44.6761C47.0156 45.2116 47.1079 45.6656 47.2926 46.038C47.4803 46.4073 47.7404 46.6889 48.0728 46.8828C48.4052 47.0736 48.7914 47.169 49.2315 47.169C49.5177 47.169 49.7762 47.129 50.0071 47.049C50.241 46.9659 50.4426 46.8428 50.6118 46.6797C50.7811 46.5135 50.9119 46.3073 51.0042 46.0611L52.0568 46.3565C51.946 46.7135 51.7598 47.0275 51.4982 47.2983C51.2366 47.5661 50.9134 47.7753 50.5287 47.9261C50.144 48.0739 49.7116 48.1477 49.2315 48.1477ZM56.7706 48.1477C56.1058 48.1477 55.5334 47.9908 55.0532 47.6768C54.5731 47.3629 54.2038 46.9305 53.9453 46.3796C53.6868 45.8287 53.5575 45.1993 53.5575 44.4915C53.5575 43.7713 53.6898 43.1358 53.9545 42.5849C54.2223 42.0309 54.5947 41.5985 55.0717 41.2876C55.5518 40.9737 56.112 40.8168 56.7521 40.8168C57.2507 40.8168 57.7 40.9091 58.1001 41.0938C58.5002 41.2784 58.828 41.5369 59.0834 41.8693C59.3389 42.2017 59.4974 42.5895 59.5589 43.0327H58.4694C58.3863 42.7095 58.2017 42.4233 57.9155 42.174C57.6323 41.9216 57.2507 41.7955 56.7706 41.7955C56.3459 41.7955 55.9735 41.9062 55.6534 42.1278C55.3364 42.3464 55.0886 42.6557 54.9101 43.0558C54.7347 43.4528 54.647 43.919 54.647 44.4545C54.647 45.0024 54.7332 45.4794 54.9055 45.8857C55.0809 46.2919 55.3272 46.6074 55.6442 46.832C55.9642 47.0567 56.3397 47.169 56.7706 47.169C57.0537 47.169 57.3107 47.1198 57.5415 47.0213C57.7724 46.9228 57.9678 46.7812 58.1278 46.5966C58.2879 46.4119 58.4017 46.1903 58.4694 45.9318H59.5589C59.4974 46.3504 59.345 46.7274 59.1019 47.0629C58.8618 47.3952 58.5433 47.6599 58.1463 47.8569C57.7523 48.0508 57.2938 48.1477 56.7706 48.1477ZM64.3004 40.9091V41.8324H60.6257V40.9091H64.3004ZM61.6967 39.2102H62.7862V45.9688C62.7862 46.2765 62.8308 46.5073 62.9201 46.6612C63.0124 46.812 63.1294 46.9136 63.2709 46.9659C63.4156 47.0152 63.5679 47.0398 63.728 47.0398C63.848 47.0398 63.9465 47.0336 64.0234 47.0213C64.1004 47.0059 64.1619 46.9936 64.2081 46.9844L64.4297 47.9631C64.3558 47.9908 64.2527 48.0185 64.1204 48.0462C63.988 48.0769 63.8203 48.0923 63.6172 48.0923C63.3094 48.0923 63.0078 48.0262 62.7123 47.8938C62.42 47.7615 62.1768 47.5599 61.9829 47.2891C61.7921 47.0182 61.6967 46.6766 61.6967 46.2642V39.2102ZM66.0043 48V40.9091H67.0938V48H66.0043ZM66.5582 39.7273C66.3459 39.7273 66.1628 39.6549 66.0089 39.5103C65.8581 39.3656 65.7827 39.1918 65.7827 38.9886C65.7827 38.7855 65.8581 38.6116 66.0089 38.467C66.1628 38.3223 66.3459 38.25 66.5582 38.25C66.7706 38.25 66.9522 38.3223 67.103 38.467C67.2569 38.6116 67.3338 38.7855 67.3338 38.9886C67.3338 39.1918 67.2569 39.3656 67.103 39.5103C66.9522 39.6549 66.7706 39.7273 66.5582 39.7273ZM72.0349 48.1477C71.3948 48.1477 70.8331 47.9954 70.3499 47.6907C69.8698 47.386 69.4943 46.9598 69.2235 46.4119C68.9557 45.8641 68.8218 45.224 68.8218 44.4915C68.8218 43.7528 68.9557 43.1081 69.2235 42.5572C69.4943 42.0063 69.8698 41.5785 70.3499 41.2738C70.8331 40.9691 71.3948 40.8168 72.0349 40.8168C72.6751 40.8168 73.2352 40.9691 73.7153 41.2738C74.1985 41.5785 74.574 42.0063 74.8417 42.5572C75.1126 43.1081 75.248 43.7528 75.248 44.4915C75.248 45.224 75.1126 45.8641 74.8417 46.4119C74.574 46.9598 74.1985 47.386 73.7153 47.6907C73.2352 47.9954 72.6751 48.1477 72.0349 48.1477ZM72.0349 47.169C72.5212 47.169 72.9213 47.0444 73.2352 46.7951C73.5491 46.5458 73.7815 46.218 73.9323 45.8118C74.0831 45.4055 74.1585 44.9654 74.1585 44.4915C74.1585 44.0175 74.0831 43.5759 73.9323 43.1665C73.7815 42.7572 73.5491 42.4264 73.2352 42.174C72.9213 41.9216 72.5212 41.7955 72.0349 41.7955C71.5486 41.7955 71.1486 41.9216 70.8346 42.174C70.5207 42.4264 70.2883 42.7572 70.1375 43.1665C69.9867 43.5759 69.9113 44.0175 69.9113 44.4915C69.9113 44.9654 69.9867 45.4055 70.1375 45.8118C70.2883 46.218 70.5207 46.5458 70.8346 46.7951C71.1486 47.0444 71.5486 47.169 72.0349 47.169ZM78.0656 43.7344V48H76.9761V40.9091H78.0286V42.017H78.121C78.2871 41.657 78.5395 41.3677 78.8781 41.1491C79.2166 40.9276 79.6536 40.8168 80.1891 40.8168C80.6692 40.8168 81.0893 40.9152 81.4494 41.1122C81.8095 41.3061 82.0896 41.6016 82.2896 41.9986C82.4897 42.3925 82.5897 42.8911 82.5897 43.4943V48H81.5002V43.5682C81.5002 43.0111 81.3556 42.5772 81.0663 42.2663C80.777 41.9524 80.3799 41.7955 79.8752 41.7955C79.5274 41.7955 79.2166 41.8709 78.9427 42.0217C78.6718 42.1725 78.458 42.3925 78.301 42.6818C78.144 42.9711 78.0656 43.322 78.0656 43.7344ZM88.3668 48V40.9091H89.4563V48H88.3668ZM88.9208 39.7273C88.7084 39.7273 88.5253 39.6549 88.3714 39.5103C88.2206 39.3656 88.1452 39.1918 88.1452 38.9886C88.1452 38.7855 88.2206 38.6116 88.3714 38.467C88.5253 38.3223 88.7084 38.25 88.9208 38.25C89.1331 38.25 89.3147 38.3223 89.4655 38.467C89.6194 38.6116 89.6964 38.7855 89.6964 38.9886C89.6964 39.1918 89.6194 39.3656 89.4655 39.5103C89.3147 39.6549 89.1331 39.7273 88.9208 39.7273ZM94.1943 48.1477C93.6034 48.1477 93.0818 47.9985 92.6293 47.6999C92.1769 47.3983 91.823 46.9736 91.5675 46.4258C91.3121 45.8749 91.1844 45.224 91.1844 44.473C91.1844 43.7282 91.3121 43.0819 91.5675 42.5341C91.823 41.9863 92.1785 41.5631 92.634 41.2646C93.0894 40.966 93.6157 40.8168 94.2128 40.8168C94.6744 40.8168 95.0391 40.8937 95.3069 41.0476C95.5777 41.1984 95.7839 41.3707 95.9255 41.5646C96.0702 41.7554 96.1825 41.9124 96.2625 42.0355H96.3548V38.5455H97.4443V48H96.3918V46.9105H96.2625C96.1825 47.0398 96.0686 47.2029 95.9209 47.3999C95.7732 47.5937 95.5623 47.7676 95.2884 47.9215C95.0145 48.0723 94.6498 48.1477 94.1943 48.1477ZM94.3421 47.169C94.7791 47.169 95.1484 47.0552 95.45 46.8274C95.7516 46.5966 95.9809 46.2781 96.1379 45.8718C96.2948 45.4625 96.3733 44.9901 96.3733 44.4545C96.3733 43.9252 96.2964 43.462 96.1425 43.065C95.9886 42.6649 95.7608 42.354 95.4592 42.1325C95.1576 41.9078 94.7852 41.7955 94.3421 41.7955C93.8804 41.7955 93.4957 41.9139 93.1879 42.1509C92.8832 42.3848 92.654 42.7034 92.5001 43.1065C92.3493 43.5066 92.2739 43.956 92.2739 44.4545C92.2739 44.9593 92.3508 45.4179 92.5047 45.8303C92.6617 46.2396 92.8925 46.5658 93.1972 46.8089C93.5049 47.049 93.8866 47.169 94.3421 47.169ZM100.099 43.4389V42.4418H105.787V43.4389H100.099ZM100.099 46.1719V45.1747H105.787V46.1719H100.099ZM109.232 38.5455V41.7955H108.216V38.5455H109.232ZM111.596 38.5455V41.7955H110.58V38.5455H111.596ZM115.685 48.1662C115.236 48.1662 114.828 48.0816 114.462 47.9123C114.096 47.7399 113.805 47.4922 113.589 47.169C113.374 46.8428 113.266 46.4489 113.266 45.9872C113.266 45.581 113.346 45.2517 113.506 44.9993C113.666 44.7438 113.88 44.5438 114.148 44.3991C114.416 44.2545 114.711 44.1468 115.034 44.076C115.36 44.0021 115.688 43.9437 116.018 43.9006C116.448 43.8452 116.798 43.8036 117.065 43.7759C117.336 43.7451 117.533 43.6944 117.656 43.6236C117.783 43.5528 117.846 43.4297 117.846 43.2543V43.2173C117.846 42.7618 117.721 42.4079 117.472 42.1555C117.225 41.9032 116.852 41.777 116.35 41.777C115.83 41.777 115.422 41.8909 115.127 42.1186C114.831 42.3464 114.623 42.5895 114.503 42.848L113.469 42.4787C113.654 42.0478 113.9 41.7124 114.208 41.4723C114.519 41.2292 114.857 41.0599 115.223 40.9645C115.593 40.866 115.956 40.8168 116.313 40.8168C116.541 40.8168 116.802 40.8445 117.098 40.8999C117.396 40.9522 117.684 41.0614 117.961 41.2276C118.241 41.3938 118.473 41.6446 118.658 41.9801C118.843 42.3156 118.935 42.7649 118.935 43.3281V48H117.846V47.0398H117.79C117.716 47.1937 117.593 47.3583 117.421 47.5337C117.249 47.7092 117.019 47.8584 116.733 47.9815C116.447 48.1046 116.098 48.1662 115.685 48.1662ZM115.851 47.1875C116.282 47.1875 116.645 47.1029 116.941 46.9336C117.239 46.7643 117.464 46.5458 117.615 46.2781C117.769 46.0103 117.846 45.7287 117.846 45.4332V44.4361C117.799 44.4915 117.698 44.5423 117.541 44.5884C117.387 44.6315 117.209 44.67 117.005 44.7038C116.805 44.7346 116.61 44.7623 116.419 44.7869C116.231 44.8085 116.079 44.8269 115.962 44.8423C115.679 44.8793 115.414 44.9393 115.168 45.0224C114.925 45.1024 114.728 45.224 114.577 45.3871C114.429 45.5471 114.356 45.7656 114.356 46.0426C114.356 46.4212 114.496 46.7074 114.776 46.9013C115.059 47.0921 115.417 47.1875 115.851 47.1875ZM121.136 48V38.5455H122.226V42.0355H122.318C122.398 41.9124 122.509 41.7554 122.651 41.5646C122.795 41.3707 123.001 41.1984 123.269 41.0476C123.54 40.8937 123.906 40.8168 124.368 40.8168C124.965 40.8168 125.491 40.966 125.947 41.2646C126.402 41.5631 126.758 41.9863 127.013 42.5341C127.269 43.0819 127.396 43.7282 127.396 44.473C127.396 45.224 127.269 45.8749 127.013 46.4258C126.758 46.9736 126.404 47.3983 125.951 47.6999C125.499 47.9985 124.977 48.1477 124.386 48.1477C123.931 48.1477 123.566 48.0723 123.292 47.9215C123.018 47.7676 122.808 47.5937 122.66 47.3999C122.512 47.2029 122.398 47.0398 122.318 46.9105H122.189V48H121.136ZM122.207 44.4545C122.207 44.9901 122.286 45.4625 122.443 45.8718C122.6 46.2781 122.829 46.5966 123.131 46.8274C123.432 47.0552 123.802 47.169 124.239 47.169C124.694 47.169 125.074 47.049 125.379 46.8089C125.687 46.5658 125.918 46.2396 126.071 45.8303C126.228 45.4179 126.307 44.9593 126.307 44.4545C126.307 43.956 126.23 43.5066 126.076 43.1065C125.925 42.7034 125.696 42.3848 125.388 42.1509C125.083 41.9139 124.7 41.7955 124.239 41.7955C123.796 41.7955 123.423 41.9078 123.121 42.1325C122.82 42.354 122.592 42.6649 122.438 43.065C122.284 43.462 122.207 43.9252 122.207 44.4545ZM132.009 48.1477C131.368 48.1477 130.807 47.9954 130.324 47.6907C129.843 47.386 129.468 46.9598 129.197 46.4119C128.929 45.8641 128.796 45.224 128.796 44.4915C128.796 43.7528 128.929 43.1081 129.197 42.5572C129.468 42.0063 129.843 41.5785 130.324 41.2738C130.807 40.9691 131.368 40.8168 132.009 40.8168C132.649 40.8168 133.209 40.9691 133.689 41.2738C134.172 41.5785 134.548 42.0063 134.815 42.5572C135.086 43.1081 135.222 43.7528 135.222 44.4915C135.222 45.224 135.086 45.8641 134.815 46.4119C134.548 46.9598 134.172 47.386 133.689 47.6907C133.209 47.9954 132.649 48.1477 132.009 48.1477ZM132.009 47.169C132.495 47.169 132.895 47.0444 133.209 46.7951C133.523 46.5458 133.755 46.218 133.906 45.8118C134.057 45.4055 134.132 44.9654 134.132 44.4915C134.132 44.0175 134.057 43.5759 133.906 43.1665C133.755 42.7572 133.523 42.4264 133.209 42.174C132.895 41.9216 132.495 41.7955 132.009 41.7955C131.522 41.7955 131.122 41.9216 130.808 42.174C130.494 42.4264 130.262 42.7572 130.111 43.1665C129.96 43.5759 129.885 44.0175 129.885 44.4915C129.885 44.9654 129.96 45.4055 130.111 45.8118C130.262 46.218 130.494 46.5458 130.808 46.7951C131.122 47.0444 131.522 47.169 132.009 47.169ZM141.418 45.1009V40.9091H142.508V48H141.418V46.7997H141.345C141.178 47.1598 140.92 47.466 140.569 47.7184C140.218 47.9677 139.775 48.0923 139.24 48.0923C138.796 48.0923 138.402 47.9954 138.058 47.8015C137.713 47.6045 137.442 47.3091 137.245 46.9151C137.048 46.5181 136.95 46.018 136.95 45.4148V40.9091H138.039V45.3409C138.039 45.858 138.184 46.2704 138.473 46.5781C138.766 46.8859 139.138 47.0398 139.59 47.0398C139.861 47.0398 140.137 46.9705 140.417 46.832C140.7 46.6935 140.937 46.4812 141.128 46.195C141.322 45.9087 141.418 45.544 141.418 45.1009ZM147.652 40.9091V41.8324H143.978V40.9091H147.652ZM145.049 39.2102H146.138V45.9688C146.138 46.2765 146.183 46.5073 146.272 46.6612C146.364 46.812 146.481 46.9136 146.623 46.9659C146.767 47.0152 146.92 47.0398 147.08 47.0398C147.2 47.0398 147.298 47.0336 147.375 47.0213C147.452 47.0059 147.514 46.9936 147.56 46.9844L147.782 47.9631C147.708 47.9908 147.605 48.0185 147.472 48.0462C147.34 48.0769 147.172 48.0923 146.969 48.0923C146.661 48.0923 146.36 48.0262 146.064 47.8938C145.772 47.7615 145.529 47.5599 145.335 47.2891C145.144 47.0182 145.049 46.6766 145.049 46.2642V39.2102ZM150.298 38.5455V41.7955H149.282V38.5455H150.298ZM152.662 38.5455V41.7955H151.646V38.5455H152.662ZM160.924 44.6761L154.978 47.7045V46.5227L159.539 44.3253L159.502 44.3991V44.2145L159.539 44.2884L154.978 42.0909V40.9091L160.924 43.9375V44.6761ZM45.9661 63.6761V62.9375L51.9121 59.9091V61.0909L47.351 63.2884L47.388 63.2145V63.3991L47.351 63.3253L51.9121 65.5227V66.7045L45.9661 63.6761ZM56.9641 67.1477C56.3731 67.1477 55.8515 66.9985 55.3991 66.6999C54.9467 66.3983 54.5927 65.9736 54.3373 65.4258C54.0818 64.8749 53.9541 64.224 53.9541 63.473C53.9541 62.7282 54.0818 62.0819 54.3373 61.5341C54.5927 60.9863 54.9482 60.5631 55.4037 60.2646C55.8592 59.966 56.3855 59.8168 56.9825 59.8168C57.4442 59.8168 57.8089 59.8937 58.0766 60.0476C58.3475 60.1984 58.5537 60.3707 58.6952 60.5646C58.8399 60.7554 58.9522 60.9124 59.0322 61.0355H59.1246V57.5455H60.2141V67H59.1615V65.9105H59.0322C58.9522 66.0398 58.8383 66.2029 58.6906 66.3999C58.5429 66.5937 58.3321 66.7676 58.0582 66.9215C57.7842 67.0723 57.4195 67.1477 56.9641 67.1477ZM57.1118 66.169C57.5488 66.169 57.9181 66.0552 58.2197 65.8274C58.5213 65.5966 58.7506 65.2781 58.9076 64.8718C59.0646 64.4625 59.143 63.9901 59.143 63.4545C59.143 62.9252 59.0661 62.462 58.9122 62.065C58.7583 61.6649 58.5306 61.354 58.229 61.1325C57.9274 60.9078 57.555 60.7955 57.1118 60.7955C56.6501 60.7955 56.2654 60.9139 55.9577 61.1509C55.653 61.3848 55.4237 61.7034 55.2698 62.1065C55.119 62.5066 55.0436 62.956 55.0436 63.4545C55.0436 63.9593 55.1205 64.4179 55.2744 64.8303C55.4314 65.2396 55.6622 65.5658 55.9669 65.8089C56.2747 66.049 56.6563 66.169 57.1118 66.169ZM62.4257 67V59.9091H63.5152V67H62.4257ZM62.9797 58.7273C62.7673 58.7273 62.5842 58.6549 62.4303 58.5103C62.2795 58.3656 62.2041 58.1918 62.2041 57.9886C62.2041 57.7855 62.2795 57.6116 62.4303 57.467C62.5842 57.3223 62.7673 57.25 62.9797 57.25C63.192 57.25 63.3736 57.3223 63.5244 57.467C63.6783 57.6116 63.7553 57.7855 63.7553 57.9886C63.7553 58.1918 63.6783 58.3656 63.5244 58.5103C63.3736 58.6549 63.192 58.7273 62.9797 58.7273ZM71.374 59.9091L68.7518 67H67.6439L65.0217 59.9091H66.2035L68.1609 65.5597H68.2348L70.1922 59.9091H71.374ZM79.1369 63.6761L73.1909 66.7045V65.5227L77.752 63.3253L77.7151 63.3991V63.2145L77.752 63.2884L73.1909 61.0909V59.9091L79.1369 62.9375V63.6761ZM82.0469 67H80.8466L84.3182 57.5455H85.5L88.9716 67H87.7713L84.946 59.0412H84.8721L82.0469 67ZM82.49 63.3068H87.3281V64.3224H82.49V63.3068ZM90.5092 67V57.5455H91.5987V61.0355H91.691C91.7711 60.9124 91.8819 60.7554 92.0234 60.5646C92.1681 60.3707 92.3743 60.1984 92.642 60.0476C92.9129 59.8937 93.2791 59.8168 93.7408 59.8168C94.3378 59.8168 94.8641 59.966 95.3196 60.2646C95.7751 60.5631 96.1306 60.9863 96.386 61.5341C96.6414 62.0819 96.7692 62.7282 96.7692 63.473C96.7692 64.224 96.6414 64.8749 96.386 65.4258C96.1306 65.9736 95.7766 66.3983 95.3242 66.6999C94.8718 66.9985 94.3501 67.1477 93.7592 67.1477C93.3037 67.1477 92.939 67.0723 92.6651 66.9215C92.3912 66.7676 92.1804 66.5937 92.0327 66.3999C91.8849 66.2029 91.7711 66.0398 91.691 65.9105H91.5618V67H90.5092ZM91.5802 63.4545C91.5802 63.9901 91.6587 64.4625 91.8157 64.8718C91.9726 65.2781 92.2019 65.5966 92.5035 65.8274C92.8051 66.0552 93.1745 66.169 93.6115 66.169C94.067 66.169 94.4471 66.049 94.7518 65.8089C95.0595 65.5658 95.2904 65.2396 95.4442 64.8303C95.6012 64.4179 95.6797 63.9593 95.6797 63.4545C95.6797 62.956 95.6027 62.5066 95.4489 62.1065C95.298 61.7034 95.0688 61.3848 94.761 61.1509C94.4563 60.9139 94.0731 60.7955 93.6115 60.7955C93.1683 60.7955 92.7959 60.9078 92.4943 61.1325C92.1927 61.354 91.9649 61.6649 91.8111 62.065C91.6572 62.462 91.5802 62.9252 91.5802 63.4545ZM101.381 67.1477C100.741 67.1477 100.18 66.9954 99.6964 66.6907C99.2163 66.386 98.8408 65.9598 98.57 65.4119C98.3022 64.8641 98.1683 64.224 98.1683 63.4915C98.1683 62.7528 98.3022 62.1081 98.57 61.5572C98.8408 61.0063 99.2163 60.5785 99.6964 60.2738C100.18 59.9691 100.741 59.8168 101.381 59.8168C102.022 59.8168 102.582 59.9691 103.062 60.2738C103.545 60.5785 103.92 61.0063 104.188 61.5572C104.459 62.1081 104.594 62.7528 104.594 63.4915C104.594 64.224 104.459 64.8641 104.188 65.4119C103.92 65.9598 103.545 66.386 103.062 66.6907C102.582 66.9954 102.022 67.1477 101.381 67.1477ZM101.381 66.169C101.868 66.169 102.268 66.0444 102.582 65.7951C102.896 65.5458 103.128 65.218 103.279 64.8118C103.43 64.4055 103.505 63.9654 103.505 63.4915C103.505 63.0175 103.43 62.5759 103.279 62.1665C103.128 61.7572 102.896 61.4264 102.582 61.174C102.268 60.9216 101.868 60.7955 101.381 60.7955C100.895 60.7955 100.495 60.9216 100.181 61.174C99.8672 61.4264 99.6348 61.7572 99.484 62.1665C99.3332 62.5759 99.2578 63.0175 99.2578 63.4915C99.2578 63.9654 99.3332 64.4055 99.484 64.8118C99.6348 65.218 99.8672 65.5458 100.181 65.7951C100.495 66.0444 100.895 66.169 101.381 66.169ZM110.791 64.1009V59.9091H111.881V67H110.791V65.7997H110.717C110.551 66.1598 110.293 66.466 109.942 66.7184C109.591 66.9677 109.148 67.0923 108.612 67.0923C108.169 67.0923 107.775 66.9954 107.431 66.8015C107.086 66.6045 106.815 66.3091 106.618 65.9151C106.421 65.5181 106.323 65.018 106.323 64.4148V59.9091H107.412V64.3409C107.412 64.858 107.557 65.2704 107.846 65.5781C108.138 65.8859 108.511 66.0398 108.963 66.0398C109.234 66.0398 109.509 65.9705 109.79 65.832C110.073 65.6935 110.31 65.4812 110.5 65.195C110.694 64.9087 110.791 64.544 110.791 64.1009ZM117.025 59.9091V60.8324H113.35V59.9091H117.025ZM114.421 58.2102H115.511V64.9688C115.511 65.2765 115.555 65.5073 115.645 65.6612C115.737 65.812 115.854 65.9136 115.996 65.9659C116.14 66.0152 116.293 66.0398 116.453 66.0398C116.573 66.0398 116.671 66.0336 116.748 66.0213C116.825 66.0059 116.887 65.9936 116.933 65.9844L117.154 66.9631C117.08 66.9908 116.977 67.0185 116.845 67.0462C116.713 67.0769 116.545 67.0923 116.342 67.0923C116.034 67.0923 115.732 67.0262 115.437 66.8938C115.145 66.7615 114.901 66.5599 114.708 66.2891C114.517 66.0182 114.421 65.6766 114.421 65.2642V58.2102ZM127.768 59.9091C127.713 59.4413 127.488 59.0781 127.094 58.8196C126.7 58.5611 126.217 58.4318 125.645 58.4318C125.226 58.4318 124.86 58.4995 124.546 58.6349C124.235 58.7704 123.992 58.9566 123.817 59.1935C123.644 59.4305 123.558 59.6998 123.558 60.0014C123.558 60.2538 123.618 60.4708 123.738 60.6523C123.861 60.8308 124.018 60.9801 124.209 61.1001C124.4 61.2171 124.6 61.314 124.809 61.391C125.018 61.4648 125.211 61.5249 125.386 61.571L126.346 61.8295C126.593 61.8942 126.867 61.9834 127.168 62.0973C127.473 62.2112 127.764 62.3666 128.041 62.5636C128.321 62.7575 128.552 63.0067 128.733 63.3114C128.915 63.6161 129.006 63.9901 129.006 64.4332C129.006 64.9441 128.872 65.4058 128.604 65.8182C128.339 66.2306 127.951 66.5584 127.441 66.8015C126.933 67.0446 126.316 67.1662 125.589 67.1662C124.912 67.1662 124.326 67.0569 123.83 66.8384C123.338 66.6199 122.95 66.3152 122.667 65.9244C122.387 65.5335 122.229 65.0795 122.192 64.5625H123.373C123.404 64.9195 123.524 65.215 123.734 65.4489C123.946 65.6797 124.214 65.852 124.537 65.9659C124.863 66.0767 125.214 66.1321 125.589 66.1321C126.026 66.1321 126.419 66.0613 126.767 65.9197C127.114 65.7751 127.39 65.575 127.593 65.3196C127.796 65.0611 127.898 64.7595 127.898 64.4148C127.898 64.1009 127.81 63.8454 127.634 63.6484C127.459 63.4515 127.228 63.2914 126.942 63.1683C126.656 63.0452 126.346 62.9375 126.014 62.8452L124.851 62.5128C124.112 62.3004 123.527 61.9973 123.096 61.6033C122.666 61.2094 122.45 60.6939 122.45 60.0568C122.45 59.5275 122.593 59.0658 122.88 58.6719C123.169 58.2749 123.557 57.9671 124.043 57.7486C124.532 57.527 125.078 57.4162 125.682 57.4162C126.291 57.4162 126.833 57.5254 127.307 57.744C127.781 57.9594 128.156 58.2549 128.433 58.6303C128.713 59.0058 128.861 59.4321 128.876 59.9091H127.768ZM133.778 67.1477C133.095 67.1477 132.506 66.9969 132.01 66.6953C131.518 66.3906 131.138 65.9659 130.87 65.4212C130.605 64.8733 130.473 64.2363 130.473 63.5099C130.473 62.7836 130.605 62.1435 130.87 61.5895C131.138 61.0324 131.51 60.5985 131.987 60.2876C132.467 59.9737 133.027 59.8168 133.667 59.8168C134.037 59.8168 134.401 59.8783 134.762 60.0014C135.122 60.1245 135.449 60.3246 135.745 60.6016C136.04 60.8755 136.276 61.2386 136.451 61.6911C136.627 62.1435 136.714 62.7005 136.714 63.3622V63.8239H131.248V62.8821H135.606C135.606 62.482 135.526 62.125 135.366 61.8111C135.209 61.4972 134.985 61.2494 134.692 61.0678C134.403 60.8862 134.061 60.7955 133.667 60.7955C133.233 60.7955 132.858 60.9032 132.541 61.1186C132.227 61.331 131.985 61.608 131.816 61.9496C131.647 62.2912 131.562 62.6574 131.562 63.0483V63.6761C131.562 64.2116 131.655 64.6656 131.839 65.038C132.027 65.4073 132.287 65.6889 132.619 65.8828C132.952 66.0736 133.338 66.169 133.778 66.169C134.064 66.169 134.323 66.129 134.554 66.049C134.788 65.9659 134.989 65.8428 135.159 65.6797C135.328 65.5135 135.459 65.3073 135.551 65.0611L136.603 65.3565C136.493 65.7135 136.307 66.0275 136.045 66.2983C135.783 66.5661 135.46 66.7753 135.075 66.9261C134.691 67.0739 134.258 67.1477 133.778 67.1477ZM141.317 67.1477C140.653 67.1477 140.08 66.9908 139.6 66.6768C139.12 66.3629 138.751 65.9305 138.492 65.3796C138.233 64.8287 138.104 64.1993 138.104 63.4915C138.104 62.7713 138.237 62.1358 138.501 61.5849C138.769 61.0309 139.141 60.5985 139.618 60.2876C140.099 59.9737 140.659 59.8168 141.299 59.8168C141.797 59.8168 142.247 59.9091 142.647 60.0938C143.047 60.2784 143.375 60.5369 143.63 60.8693C143.886 61.2017 144.044 61.5895 144.106 62.0327H143.016C142.933 61.7095 142.748 61.4233 142.462 61.174C142.179 60.9216 141.797 60.7955 141.317 60.7955C140.893 60.7955 140.52 60.9062 140.2 61.1278C139.883 61.3464 139.635 61.6557 139.457 62.0558C139.281 62.4528 139.194 62.919 139.194 63.4545C139.194 64.0024 139.28 64.4794 139.452 64.8857C139.628 65.2919 139.874 65.6074 140.191 65.832C140.511 66.0567 140.886 66.169 141.317 66.169C141.6 66.169 141.857 66.1198 142.088 66.0213C142.319 65.9228 142.515 65.7812 142.675 65.5966C142.835 65.4119 142.948 65.1903 143.016 64.9318H144.106C144.044 65.3504 143.892 65.7274 143.649 66.0629C143.409 66.3952 143.09 66.6599 142.693 66.8569C142.299 67.0508 141.84 67.1477 141.317 67.1477ZM148.847 59.9091V60.8324H145.172V59.9091H148.847ZM146.243 58.2102H147.333V64.9688C147.333 65.2765 147.378 65.5073 147.467 65.6612C147.559 65.812 147.676 65.9136 147.818 65.9659C147.962 66.0152 148.115 66.0398 148.275 66.0398C148.395 66.0398 148.493 66.0336 148.57 66.0213C148.647 66.0059 148.709 65.9936 148.755 65.9844L148.976 66.9631C148.903 66.9908 148.799 67.0185 148.667 67.0462C148.535 67.0769 148.367 67.0923 148.164 67.0923C147.856 67.0923 147.555 67.0262 147.259 66.8938C146.967 66.7615 146.724 66.5599 146.53 66.2891C146.339 66.0182 146.243 65.6766 146.243 65.2642V58.2102ZM150.551 67V59.9091H151.64V67H150.551ZM151.105 58.7273C150.893 58.7273 150.709 58.6549 150.556 58.5103C150.405 58.3656 150.329 58.1918 150.329 57.9886C150.329 57.7855 150.405 57.6116 150.556 57.467C150.709 57.3223 150.893 57.25 151.105 57.25C151.317 57.25 151.499 57.3223 151.65 57.467C151.804 57.6116 151.881 57.7855 151.881 57.9886C151.881 58.1918 151.804 58.3656 151.65 58.5103C151.499 58.6549 151.317 58.7273 151.105 58.7273ZM156.582 67.1477C155.941 67.1477 155.38 66.9954 154.897 66.6907C154.417 66.386 154.041 65.9598 153.77 65.4119C153.502 64.8641 153.369 64.224 153.369 63.4915C153.369 62.7528 153.502 62.1081 153.77 61.5572C154.041 61.0063 154.417 60.5785 154.897 60.2738C155.38 59.9691 155.941 59.8168 156.582 59.8168C157.222 59.8168 157.782 59.9691 158.262 60.2738C158.745 60.5785 159.121 61.0063 159.388 61.5572C159.659 62.1081 159.795 62.7528 159.795 63.4915C159.795 64.224 159.659 64.8641 159.388 65.4119C159.121 65.9598 158.745 66.386 158.262 66.6907C157.782 66.9954 157.222 67.1477 156.582 67.1477ZM156.582 66.169C157.068 66.169 157.468 66.0444 157.782 65.7951C158.096 65.5458 158.328 65.218 158.479 64.8118C158.63 64.4055 158.705 63.9654 158.705 63.4915C158.705 63.0175 158.63 62.5759 158.479 62.1665C158.328 61.7572 158.096 61.4264 157.782 61.174C157.468 60.9216 157.068 60.7955 156.582 60.7955C156.095 60.7955 155.695 60.9216 155.381 61.174C155.067 61.4264 154.835 61.7572 154.684 62.1665C154.533 62.5759 154.458 63.0175 154.458 63.4915C154.458 63.9654 154.533 64.4055 154.684 64.8118C154.835 65.218 155.067 65.5458 155.381 65.7951C155.695 66.0444 156.095 66.169 156.582 66.169ZM162.612 62.7344V67H161.523V59.9091H162.575V61.017H162.668C162.834 60.657 163.086 60.3677 163.425 60.1491C163.763 59.9276 164.2 59.8168 164.736 59.8168C165.216 59.8168 165.636 59.9152 165.996 60.1122C166.356 60.3061 166.636 60.6016 166.836 60.9986C167.036 61.3925 167.136 61.8911 167.136 62.4943V67H166.047V62.5682C166.047 62.0111 165.902 61.5772 165.613 61.2663C165.324 60.9524 164.927 60.7955 164.422 60.7955C164.074 60.7955 163.763 60.8709 163.489 61.0217C163.219 61.1725 163.005 61.3925 162.848 61.6818C162.691 61.9711 162.612 62.322 162.612 62.7344ZM169.506 63.6761V62.9375L175.452 59.9091V61.0909L170.891 63.2884L170.928 63.2145V63.3991L170.891 63.3253L175.452 65.5227V66.7045L169.506 63.6761ZM181.169 57.1023L178.122 68.4219H177.125L180.172 57.1023H181.169ZM185.203 67.1477C184.612 67.1477 184.09 66.9985 183.638 66.6999C183.186 66.3983 182.832 65.9736 182.576 65.4258C182.321 64.8749 182.193 64.224 182.193 63.473C182.193 62.7282 182.321 62.0819 182.576 61.5341C182.832 60.9863 183.187 60.5631 183.643 60.2646C184.098 59.966 184.624 59.8168 185.221 59.8168C185.683 59.8168 186.048 59.8937 186.316 60.0476C186.586 60.1984 186.793 60.3707 186.934 60.5646C187.079 60.7554 187.191 60.9124 187.271 61.0355H187.363V57.5455H188.453V67H187.4V65.9105H187.271C187.191 66.0398 187.077 66.2029 186.93 66.3999C186.782 66.5937 186.571 66.7676 186.297 66.9215C186.023 67.0723 185.658 67.1477 185.203 67.1477ZM185.351 66.169C185.788 66.169 186.157 66.0552 186.459 65.8274C186.76 65.5966 186.99 65.2781 187.146 64.8718C187.303 64.4625 187.382 63.9901 187.382 63.4545C187.382 62.9252 187.305 62.462 187.151 62.065C186.997 61.6649 186.769 61.354 186.468 61.1325C186.166 60.9078 185.794 60.7955 185.351 60.7955C184.889 60.7955 184.504 60.9139 184.197 61.1509C183.892 61.3848 183.663 61.7034 183.509 62.1065C183.358 62.5066 183.283 62.956 183.283 63.4545C183.283 63.9593 183.359 64.4179 183.513 64.8303C183.67 65.2396 183.901 65.5658 184.206 65.8089C184.514 66.049 184.895 66.169 185.351 66.169ZM190.665 67V59.9091H191.754V67H190.665ZM191.219 58.7273C191.006 58.7273 190.823 58.6549 190.669 58.5103C190.518 58.3656 190.443 58.1918 190.443 57.9886C190.443 57.7855 190.518 57.6116 190.669 57.467C190.823 57.3223 191.006 57.25 191.219 57.25C191.431 57.25 191.613 57.3223 191.763 57.467C191.917 57.6116 191.994 57.7855 191.994 57.9886C191.994 58.1918 191.917 58.3656 191.763 58.5103C191.613 58.6549 191.431 58.7273 191.219 58.7273ZM199.613 59.9091L196.991 67H195.883L193.261 59.9091H194.442L196.4 65.5597H196.474L198.431 59.9091H199.613ZM207.376 63.6761L201.43 66.7045V65.5227L205.991 63.3253L205.954 63.3991V63.2145L205.991 63.2884L201.43 61.0909V59.9091L207.376 62.9375V63.6761ZM31.0811 82.6761V81.9375L37.0271 78.9091V80.0909L32.466 82.2884L32.503 82.2145V82.3991L32.466 82.3253L37.0271 84.5227V85.7045L31.0811 82.6761ZM42.7438 76.1023L39.6969 87.4219H38.6998L41.7467 76.1023H42.7438ZM49.123 80.4972L48.1443 80.7741C48.0828 80.611 47.992 80.4525 47.8719 80.2987C47.755 80.1417 47.595 80.0124 47.3918 79.9109C47.1887 79.8093 46.9286 79.7585 46.6116 79.7585C46.1777 79.7585 45.8161 79.8585 45.5268 80.0586C45.2406 80.2556 45.0974 80.5064 45.0974 80.8111C45.0974 81.0819 45.1959 81.2958 45.3929 81.4528C45.5899 81.6097 45.8976 81.7405 46.3162 81.8452L47.3688 82.1037C48.0027 82.2576 48.4752 82.493 48.786 82.81C49.0969 83.1239 49.2523 83.5286 49.2523 84.0241C49.2523 84.4304 49.1353 84.7936 48.9014 85.1136C48.6706 85.4337 48.3474 85.6861 47.932 85.8707C47.5165 86.0554 47.0333 86.1477 46.4824 86.1477C45.7591 86.1477 45.1605 85.9908 44.6866 85.6768C44.2126 85.3629 43.9125 84.9044 43.7864 84.3011L44.8205 84.0426C44.9189 84.4242 45.1051 84.7105 45.379 84.9013C45.656 85.0921 46.0177 85.1875 46.4639 85.1875C46.9717 85.1875 47.3749 85.0798 47.6734 84.8643C47.975 84.6458 48.1259 84.3842 48.1259 84.0795C48.1259 83.8333 48.0397 83.6271 47.8673 83.4609C47.695 83.2917 47.4303 83.1655 47.0733 83.0824L45.8915 82.8054C45.2421 82.6515 44.7651 82.413 44.4604 82.0898C44.1588 81.7636 44.008 81.3558 44.008 80.8665C44.008 80.4664 44.1203 80.1125 44.345 79.8047C44.5727 79.4969 44.882 79.2553 45.2729 79.0799C45.6668 78.9045 46.1131 78.8168 46.6116 78.8168C47.3134 78.8168 47.8643 78.9706 48.2643 79.2784C48.6675 79.5862 48.9537 79.9924 49.123 80.4972ZM53.9303 86.1477C53.247 86.1477 52.6577 85.9969 52.1622 85.6953C51.6698 85.3906 51.2897 84.9659 51.0219 84.4212C50.7572 83.8733 50.6249 83.2363 50.6249 82.5099C50.6249 81.7836 50.7572 81.1435 51.0219 80.5895C51.2897 80.0324 51.6621 79.5985 52.1391 79.2876C52.6192 78.9737 53.1793 78.8168 53.8195 78.8168C54.1888 78.8168 54.5535 78.8783 54.9136 79.0014C55.2737 79.1245 55.6015 79.3246 55.8969 79.6016C56.1924 79.8755 56.4278 80.2386 56.6032 80.6911C56.7787 81.1435 56.8664 81.7005 56.8664 82.3622V82.8239H51.4005V81.8821H55.7584C55.7584 81.482 55.6784 81.125 55.5184 80.8111C55.3614 80.4972 55.1367 80.2494 54.8444 80.0678C54.5551 79.8862 54.2134 79.7955 53.8195 79.7955C53.3855 79.7955 53.0101 79.9032 52.6931 80.1186C52.3792 80.331 52.1376 80.608 51.9683 80.9496C51.799 81.2912 51.7144 81.6574 51.7144 82.0483V82.6761C51.7144 83.2116 51.8067 83.6656 51.9914 84.038C52.1791 84.4073 52.4392 84.6889 52.7716 84.8828C53.1039 85.0736 53.4902 85.169 53.9303 85.169C54.2165 85.169 54.475 85.129 54.7059 85.049C54.9398 84.9659 55.1413 84.8428 55.3106 84.6797C55.4799 84.5135 55.6107 84.3073 55.703 84.0611L56.7556 84.3565C56.6448 84.7135 56.4586 85.0275 56.197 85.2983C55.9354 85.5661 55.6122 85.7753 55.2275 85.9261C54.8428 86.0739 54.4104 86.1477 53.9303 86.1477ZM61.4694 86.1477C60.8046 86.1477 60.2321 85.9908 59.752 85.6768C59.2719 85.3629 58.9026 84.9305 58.6441 84.3796C58.3856 83.8287 58.2563 83.1993 58.2563 82.4915C58.2563 81.7713 58.3886 81.1358 58.6533 80.5849C58.9211 80.0309 59.2935 79.5985 59.7705 79.2876C60.2506 78.9737 60.8107 78.8168 61.4509 78.8168C61.9495 78.8168 62.3988 78.9091 62.7989 79.0938C63.199 79.2784 63.5268 79.5369 63.7822 79.8693C64.0377 80.2017 64.1962 80.5895 64.2577 81.0327H63.1682C63.0851 80.7095 62.9005 80.4233 62.6142 80.174C62.3311 79.9216 61.9495 79.7955 61.4694 79.7955C61.0446 79.7955 60.6723 79.9062 60.3522 80.1278C60.0352 80.3464 59.7874 80.6557 59.6089 81.0558C59.4335 81.4528 59.3458 81.919 59.3458 82.4545C59.3458 83.0024 59.432 83.4794 59.6043 83.8857C59.7797 84.2919 60.0259 84.6074 60.3429 84.832C60.663 85.0567 61.0385 85.169 61.4694 85.169C61.7525 85.169 62.0095 85.1198 62.2403 85.0213C62.4711 84.9228 62.6666 84.7812 62.8266 84.5966C62.9866 84.4119 63.1005 84.1903 63.1682 83.9318H64.2577C64.1962 84.3504 64.0438 84.7274 63.8007 85.0629C63.5606 85.3952 63.2421 85.6599 62.8451 85.8569C62.4511 86.0508 61.9926 86.1477 61.4694 86.1477ZM68.9992 78.9091V79.8324H65.3245V78.9091H68.9992ZM66.3955 77.2102H67.485V83.9688C67.485 84.2765 67.5296 84.5073 67.6189 84.6612C67.7112 84.812 67.8282 84.9136 67.9697 84.9659C68.1144 85.0152 68.2667 85.0398 68.4268 85.0398C68.5468 85.0398 68.6453 85.0336 68.7222 85.0213C68.7992 85.0059 68.8607 84.9936 68.9069 84.9844L69.1285 85.9631C69.0546 85.9908 68.9515 86.0185 68.8192 86.0462C68.6868 86.0769 68.5191 86.0923 68.316 86.0923C68.0082 86.0923 67.7066 86.0262 67.4111 85.8938C67.1188 85.7615 66.8756 85.5599 66.6817 85.2891C66.4909 85.0182 66.3955 84.6766 66.3955 84.2642V77.2102ZM70.7031 86V78.9091H71.7925V86H70.7031ZM71.257 77.7273C71.0447 77.7273 70.8616 77.6549 70.7077 77.5103C70.5569 77.3656 70.4815 77.1918 70.4815 76.9886C70.4815 76.7855 70.5569 76.6116 70.7077 76.467C70.8616 76.3223 71.0447 76.25 71.257 76.25C71.4694 76.25 71.651 76.3223 71.8018 76.467C71.9557 76.6116 72.0326 76.7855 72.0326 76.9886C72.0326 77.1918 71.9557 77.3656 71.8018 77.5103C71.651 77.6549 71.4694 77.7273 71.257 77.7273ZM76.7337 86.1477C76.0935 86.1477 75.5319 85.9954 75.0487 85.6907C74.5686 85.386 74.1931 84.9598 73.9223 84.4119C73.6545 83.8641 73.5206 83.224 73.5206 82.4915C73.5206 81.7528 73.6545 81.1081 73.9223 80.5572C74.1931 80.0063 74.5686 79.5785 75.0487 79.2738C75.5319 78.9691 76.0935 78.8168 76.7337 78.8168C77.3739 78.8168 77.934 78.9691 78.4141 79.2738C78.8973 79.5785 79.2728 80.0063 79.5405 80.5572C79.8114 81.1081 79.9468 81.7528 79.9468 82.4915C79.9468 83.224 79.8114 83.8641 79.5405 84.4119C79.2728 84.9598 78.8973 85.386 78.4141 85.6907C77.934 85.9954 77.3739 86.1477 76.7337 86.1477ZM76.7337 85.169C77.22 85.169 77.6201 85.0444 77.934 84.7951C78.2479 84.5458 78.4803 84.218 78.6311 83.8118C78.7819 83.4055 78.8573 82.9654 78.8573 82.4915C78.8573 82.0175 78.7819 81.5759 78.6311 81.1665C78.4803 80.7572 78.2479 80.4264 77.934 80.174C77.6201 79.9216 77.22 79.7955 76.7337 79.7955C76.2474 79.7955 75.8473 79.9216 75.5334 80.174C75.2195 80.4264 74.9871 80.7572 74.8363 81.1665C74.6855 81.5759 74.6101 82.0175 74.6101 82.4915C74.6101 82.9654 74.6855 83.4055 74.8363 83.8118C74.9871 84.218 75.2195 84.5458 75.5334 84.7951C75.8473 85.0444 76.2474 85.169 76.7337 85.169ZM82.7643 81.7344V86H81.6749V78.9091H82.7274V80.017H82.8197C82.9859 79.657 83.2383 79.3677 83.5768 79.1491C83.9154 78.9276 84.3524 78.8168 84.8879 78.8168C85.368 78.8168 85.7881 78.9152 86.1482 79.1122C86.5083 79.3061 86.7884 79.6016 86.9884 79.9986C87.1885 80.3925 87.2885 80.8911 87.2885 81.4943V86H86.199V81.5682C86.199 81.0111 86.0544 80.5772 85.7651 80.2663C85.4758 79.9524 85.0787 79.7955 84.574 79.7955C84.2262 79.7955 83.9154 79.8709 83.6415 80.0217C83.3706 80.1725 83.1567 80.3925 82.9998 80.6818C82.8428 80.9711 82.7643 81.322 82.7643 81.7344ZM95.6043 82.6761L89.6583 85.7045V84.5227L94.2194 82.3253L94.1824 82.3991V82.2145L94.2194 82.2884L89.6583 80.0909V78.9091L95.6043 81.9375V82.6761ZM18.2089 101.011C18.2089 102.175 18.0565 103.246 17.7518 104.224C17.4502 105.2 17.0178 106.099 16.4546 106.92H15.4944C15.716 106.616 15.9222 106.24 16.113 105.794C16.3069 105.351 16.4761 104.865 16.6208 104.335C16.7654 103.803 16.8778 103.253 16.9578 102.687C17.0409 102.118 17.0824 101.559 17.0824 101.011C17.0824 100.279 17.0117 99.5356 16.8701 98.7816C16.7285 98.0276 16.5377 97.3274 16.2976 96.6811C16.0576 96.0348 15.7898 95.5085 15.4944 95.1023H16.4546C17.0178 95.924 17.4502 96.8242 17.7518 97.8029C18.0565 98.7785 18.2089 99.848 18.2089 101.011ZM4.22869 119.993V120.565C3.71473 120.565 3.35464 120.673 3.14844 120.888C2.94531 121.104 2.84375 121.464 2.84375 121.969V123.446C2.84375 123.871 2.8022 124.239 2.71911 124.549C2.63909 124.86 2.50675 125.117 2.32209 125.32C2.13743 125.523 1.89122 125.674 1.58345 125.773C1.27569 125.871 0.895597 125.92 0.443182 125.92V125.016C0.800189 125.016 1.08026 124.959 1.28338 124.845C1.48958 124.734 1.63423 124.563 1.71733 124.332C1.8035 124.102 1.84659 123.806 1.84659 123.446V121.599C1.84659 121.359 1.87737 121.141 1.93892 120.944C2.00355 120.747 2.1205 120.578 2.28977 120.436C2.45904 120.295 2.6991 120.185 3.00994 120.108C3.32386 120.031 3.73011 119.993 4.22869 119.993ZM0.443182 114.102C0.895597 114.102 1.27569 114.152 1.58345 114.25C1.89122 114.348 2.13743 114.499 2.32209 114.702C2.50675 114.906 2.63909 115.163 2.71911 115.473C2.8022 115.784 2.84375 116.152 2.84375 116.577V118.054C2.84375 118.559 2.94531 118.919 3.14844 119.134C3.35464 119.35 3.71473 119.457 4.22869 119.457V120.03C3.73011 120.03 3.32386 119.991 3.00994 119.914C2.6991 119.837 2.45904 119.728 2.28977 119.587C2.1205 119.445 2.00355 119.276 1.93892 119.079C1.87737 118.882 1.84659 118.663 1.84659 118.423V116.577C1.84659 116.217 1.8035 115.921 1.71733 115.69C1.63423 115.456 1.48958 115.284 1.28338 115.173C1.08026 115.062 0.800189 115.007 0.443182 115.007V114.102ZM4.22869 119.457V120.565H3.1392V119.457H4.22869Z" fill="#E5E5E5"/>
</svg>
