<?xml version="1.0" encoding="utf-8"?>
<!-- Generator: Adobe Illustrator 19.0.0, SVG Export Plug-In . SVG Version: 6.00 Build 0)  -->
<svg version="1.1" id="Layer_1" xmlns="http://www.w3.org/2000/svg" xmlns:xlink="http://www.w3.org/1999/xlink" x="0px" y="0px"
	 viewBox="0 0 353 197" style="enable-background:new 0 0 353 197;" xml:space="preserve">
<g id="XMLID_215_">
	<path id="XMLID_46_" d="M39.3,5v13.8h-14v84.5h14v13.9h-30V5H39.3z"/>
	<path id="XMLID_48_" d="M55.1,94.5c-1.9-1.8-2.8-4-2.8-6.6c0-2.7,1-4.9,2.8-6.7c1.9-1.8,4.4-2.7,7.4-2.7c2.9,0,5.3,0.9,7.3,2.7
		c1.9,1.8,2.8,4,2.8,6.7c0,2.6-1,4.8-2.8,6.6c-1.9,1.8-4.3,2.6-7.3,2.6C59.5,97.1,57,96.3,55.1,94.5z"/>
	<path id="XMLID_50_" d="M83.3,94.5c-1.9-1.8-2.8-4-2.8-6.6c0-2.7,1-4.9,2.8-6.7c1.9-1.8,4.4-2.7,7.4-2.7c2.9,0,5.3,0.9,7.3,2.7
		c1.9,1.8,2.8,4,2.8,6.7c0,2.6-1,4.8-2.8,6.6c-1.9,1.8-4.3,2.6-7.3,2.6C87.7,97.1,85.2,96.3,83.3,94.5z"/>
	<path id="XMLID_52_" d="M111.5,94.5c-1.9-1.8-2.8-4-2.8-6.6c0-2.7,1-4.9,2.8-6.7c1.9-1.8,4.4-2.7,7.4-2.7c2.9,0,5.3,0.9,7.3,2.7
		c1.9,1.8,2.8,4,2.8,6.7c0,2.6-1,4.8-2.8,6.6c-1.9,1.8-4.3,2.6-7.3,2.6C115.9,97.1,113.4,96.3,111.5,94.5z"/>
	<path id="XMLID_54_" d="M248,46.2c4.1,4.2,6.1,10,6.1,17.5v32.6h-17V66c0-3.6-0.9-6.4-2.8-8.4c-1.9-2-4.5-3-7.8-3c-3.3,0-6,1-7.9,3
		c-1.9,2-2.8,4.8-2.8,8.4v30.3h-17V66c0-3.6-1-6.4-2.9-8.4c-1.9-2-4.5-3-7.8-3c-3.3,0-6,1-7.8,3c-1.9,2-2.9,4.8-2.9,8.4v30.3h-17.1
		V40.5h17.1v7c1.7-2.3,4-4.2,6.8-5.6c2.8-1.4,6-2,9.5-2c4.2,0,8,0.9,11.3,2.7c3.3,1.8,5.9,4.4,7.8,7.7c1.9-3.1,4.6-5.6,7.9-7.5
		c3.3-1.9,7-2.9,10.9-2.9C238.4,39.9,243.9,42,248,46.2z"/>
	<path id="XMLID_83_" d="M282.2,82.2h24.2v14.1h-43.3V82.7l23.2-28.1h-23V40.5h42.6v13.6L282.2,82.2z"/>
	<path id="XMLID_87_" d="M348.6,117.2h-30v-13.9h14V18.8h-14V5h30V117.2z"/>
</g>
<g id="XMLID_213_">
	<path id="XMLID_89_" d="M37.6,167c1.5,1.5,2.3,3.8,2.3,6.7v12.2h-2.6V174c0-2.3-0.5-4-1.6-5.2c-1.1-1.2-2.6-1.8-4.4-1.8
		c-2,0-3.5,0.6-4.7,1.9c-1.2,1.3-1.7,3.2-1.7,5.6v11.2h-2.6V174c0-2.3-0.5-4-1.6-5.2c-1.1-1.2-2.6-1.8-4.5-1.8c-2,0-3.5,0.6-4.7,1.9
		c-1.2,1.3-1.7,3.2-1.7,5.6v11.2H6.9v-20.7h2.7v3.6c0.7-1.3,1.6-2.3,2.8-2.9c1.2-0.7,2.6-1,4.1-1c1.8,0,3.4,0.4,4.7,1.3
		s2.3,2.1,2.9,3.8c0.6-1.6,1.5-2.9,2.9-3.8c1.4-0.9,2.9-1.3,4.6-1.3C34.1,164.7,36.1,165.5,37.6,167z"/>
	<path id="XMLID_91_" d="M53.7,169.8c0.8-1.6,2-2.9,3.5-3.7c1.5-0.9,3.2-1.3,5.1-1.3c2,0,3.7,0.5,5.1,1.4c1.4,0.9,2.5,2.1,3.1,3.5
		v-4.6h2.7v20.7h-2.7v-4.6c-0.7,1.4-1.7,2.6-3.1,3.5c-1.4,0.9-3.1,1.4-5.1,1.4c-1.9,0-3.6-0.4-5.1-1.3c-1.5-0.9-2.7-2.1-3.5-3.8
		c-0.8-1.6-1.3-3.5-1.3-5.6S52.8,171.4,53.7,169.8z M69.5,171c-0.7-1.3-1.6-2.2-2.8-2.9s-2.5-1-3.9-1c-1.5,0-2.8,0.3-4,1
		c-1.2,0.7-2.1,1.6-2.8,2.9c-0.7,1.3-1,2.7-1,4.5c0,1.7,0.3,3.2,1,4.5c0.7,1.3,1.6,2.3,2.8,2.9c1.2,0.7,2.5,1,4,1
		c1.4,0,2.7-0.3,3.9-1s2.1-1.7,2.8-2.9c0.7-1.3,1-2.7,1-4.4S70.2,172.3,69.5,171z"/>
	<path id="XMLID_94_" d="M92.4,165.8c1.2-0.7,2.7-1.1,4.4-1.1v2.8h-0.7c-1.9,0-3.5,0.5-4.6,1.6c-1.2,1-1.7,2.8-1.7,5.2v11.6h-2.7
		v-20.7h2.7v3.7C90.3,167.5,91.2,166.5,92.4,165.8z"/>
	<path id="XMLID_96_" d="M108.7,169.8c0.9-1.6,2.1-2.9,3.6-3.7c1.5-0.9,3.3-1.3,5.2-1.3c2.6,0,4.7,0.6,6.3,1.9
		c1.7,1.3,2.7,3,3.2,5.2h-2.8c-0.4-1.5-1.1-2.7-2.3-3.5s-2.6-1.3-4.4-1.3c-1.4,0-2.6,0.3-3.8,1c-1.1,0.6-2,1.6-2.6,2.8
		c-0.6,1.3-1,2.8-1,4.6s0.3,3.4,1,4.6c0.6,1.3,1.5,2.2,2.6,2.9c1.1,0.6,2.4,0.9,3.8,0.9c1.7,0,3.2-0.4,4.4-1.3s1.9-2,2.3-3.6h2.8
		c-0.5,2.1-1.6,3.8-3.2,5.1s-3.8,1.9-6.3,1.9c-2,0-3.7-0.4-5.2-1.3c-1.5-0.9-2.7-2.1-3.6-3.7c-0.9-1.6-1.3-3.5-1.3-5.6
		S107.9,171.4,108.7,169.8z"/>
	<path id="XMLID_98_" d="M139.8,160.6c-0.4-0.4-0.6-0.8-0.6-1.4s0.2-1,0.6-1.4c0.4-0.4,0.8-0.6,1.4-0.6s1,0.2,1.4,0.6
		c0.4,0.4,0.6,0.8,0.6,1.4s-0.2,1-0.6,1.4c-0.4,0.4-0.8,0.6-1.4,0.6S140.1,161,139.8,160.6z M142.4,165.1v20.7h-2.7v-20.7H142.4z"/>
	<path id="XMLID_137_" d="M172.1,167c1.6,1.5,2.4,3.8,2.4,6.7v12.2h-2.6V174c0-2.3-0.6-4-1.7-5.2c-1.1-1.2-2.7-1.8-4.6-1.8
		c-2,0-3.6,0.6-4.8,1.9c-1.2,1.3-1.8,3.1-1.8,5.6v11.3h-2.7v-20.7h2.7v3.5c0.7-1.3,1.6-2.2,2.8-2.9c1.2-0.7,2.6-1,4.2-1
		C168.5,164.7,170.6,165.5,172.1,167z"/>
	<path id="XMLID_139_" d="M207.8,183.6h10.9v2.2h-13.9v-2.2l10.7-16.3H205v-2.2h13.5v2.2L207.8,183.6z"/>
	<path id="XMLID_150_" d="M248.1,165.1l-12.3,30.5H233l4-9.9l-8.5-20.6h2.9l7.1,17.7l6.8-17.7H248.1z"/>
	<path id="XMLID_152_" d="M273.4,166.1c1.4,0.9,2.5,2.1,3.1,3.5v-4.5h2.7v21.3c0,1.9-0.4,3.6-1.2,5.1c-0.8,1.5-2,2.6-3.4,3.4
		c-1.5,0.8-3.1,1.2-5,1.2c-2.7,0-4.9-0.6-6.6-1.9c-1.8-1.3-2.9-3-3.3-5.2h2.6c0.5,1.4,1.3,2.6,2.6,3.5c1.3,0.9,2.8,1.3,4.7,1.3
		c1.3,0,2.5-0.3,3.6-0.9c1.1-0.6,1.9-1.4,2.5-2.5c0.6-1.1,0.9-2.4,0.9-4v-5.1c-0.7,1.4-1.7,2.6-3.1,3.5c-1.4,0.9-3.1,1.4-5.1,1.4
		c-1.9,0-3.6-0.4-5.1-1.3c-1.5-0.9-2.7-2.1-3.5-3.8c-0.8-1.6-1.3-3.5-1.3-5.6s0.4-4,1.3-5.6s2-2.9,3.5-3.7c1.5-0.9,3.2-1.3,5.1-1.3
		C270.2,164.8,271.9,165.2,273.4,166.1z M275.4,171c-0.7-1.3-1.6-2.2-2.8-2.9s-2.5-1-3.9-1c-1.5,0-2.8,0.3-4,1
		c-1.2,0.7-2.1,1.6-2.8,2.9c-0.7,1.3-1,2.7-1,4.5c0,1.7,0.3,3.2,1,4.5c0.7,1.3,1.6,2.3,2.8,2.9c1.2,0.7,2.5,1,4,1
		c1.4,0,2.7-0.3,3.9-1s2.1-1.7,2.8-2.9c0.7-1.3,1-2.7,1-4.4S276.1,172.3,275.4,171z"/>
	<path id="XMLID_155_" d="M293.1,169.8c0.8-1.6,2-2.9,3.5-3.7c1.5-0.9,3.2-1.3,5.1-1.3c2,0,3.7,0.5,5.1,1.4c1.4,0.9,2.5,2.1,3.1,3.5
		v-4.6h2.7v20.7H310v-4.6c-0.7,1.4-1.7,2.6-3.1,3.5c-1.4,0.9-3.1,1.4-5.1,1.4c-1.9,0-3.6-0.4-5.1-1.3c-1.5-0.9-2.7-2.1-3.5-3.8
		c-0.8-1.6-1.3-3.5-1.3-5.6S292.2,171.4,293.1,169.8z M308.9,171c-0.7-1.3-1.6-2.2-2.8-2.9s-2.5-1-3.9-1c-1.5,0-2.8,0.3-4,1
		c-1.2,0.7-2.1,1.6-2.8,2.9c-0.7,1.3-1,2.7-1,4.5c0,1.7,0.3,3.2,1,4.5c0.7,1.3,1.6,2.3,2.8,2.9c1.2,0.7,2.5,1,4,1
		c1.4,0,2.7-0.3,3.9-1s2.1-1.7,2.8-2.9c0.7-1.3,1-2.7,1-4.4S309.6,172.3,308.9,171z"/>
	<path id="XMLID_158_" d="M342.3,167c1.6,1.5,2.4,3.8,2.4,6.7v12.2h-2.6V174c0-2.3-0.6-4-1.7-5.2c-1.1-1.2-2.7-1.8-4.6-1.8
		c-2,0-3.6,0.6-4.8,1.9c-1.2,1.3-1.8,3.1-1.8,5.6v11.3h-2.7v-20.7h2.7v3.5c0.7-1.3,1.6-2.2,2.8-2.9c1.2-0.7,2.6-1,4.2-1
		C338.7,164.7,340.8,165.5,342.3,167z"/>
</g>
</svg>
