<svg width="360" height="327" viewBox="0 0 360 327" fill="none" xmlns="http://www.w3.org/2000/svg">
<rect x="19.4376" width="340.562" height="326.967" fill="white"/>
<line y1="-0.5" x2="157.094" y2="-0.5" transform="matrix(-0.721769 0.692134 -0.721769 -0.692134 306.142 45.822)" stroke="#E2E2E2"/>
<line y1="-0.5" x2="157.094" y2="-0.5" transform="matrix(-0.721769 0.692134 -0.721769 -0.692134 328.819 70.6747)" stroke="#E2E2E2"/>
<line y1="-0.5" x2="157.094" y2="-0.5" transform="matrix(-0.721769 0.692134 -0.721769 -0.692134 347.042 100.187)" stroke="#E2E2E2"/>
<path d="M140.517 89.2625C141.99 89.2625 143.184 88.0686 143.184 86.5959C143.184 85.1231 141.99 83.9292 140.517 83.9292C139.045 83.9292 137.851 85.1231 137.851 86.5959C137.851 88.0686 139.045 89.2625 140.517 89.2625ZM141.017 96.3039L141.017 86.5959L140.017 86.5959L140.017 96.3039L141.017 96.3039Z" fill="#E2E2E2"/>
<path d="M140.517 79.5545C141.99 79.5545 143.184 78.3606 143.184 76.8878C143.184 75.4151 141.99 74.2212 140.517 74.2212C139.045 74.2212 137.851 75.4151 137.851 76.8878C137.851 78.3606 139.045 79.5545 140.517 79.5545ZM141.017 86.5959L141.017 76.8878L140.017 76.8878L140.017 86.5959L141.017 86.5959Z" fill="#E2E2E2"/>
<path d="M140.517 69.4581C141.99 69.4581 143.184 68.2642 143.184 66.7914C143.184 65.3187 141.99 64.1248 140.517 64.1248C139.045 64.1248 137.851 65.3187 137.851 66.7914C137.851 68.2642 139.045 69.4581 140.517 69.4581ZM141.017 76.4995L141.017 66.7914L140.017 66.7914L140.017 76.4995L141.017 76.4995Z" fill="#E2E2E2"/>
<path d="M140.517 59.7501C141.99 59.7501 143.184 58.5561 143.184 57.0834C143.184 55.6106 141.99 54.4167 140.517 54.4167C139.045 54.4167 137.851 55.6106 137.851 57.0834C137.851 58.5561 139.045 59.7501 140.517 59.7501ZM141.017 66.7914L141.017 57.0834L140.017 57.0834L140.017 66.7914L141.017 66.7914Z" fill="#E2E2E2"/>
<path d="M195.186 89.2625C196.658 89.2625 197.852 88.0686 197.852 86.5959C197.852 85.1231 196.658 83.9292 195.186 83.9292C193.713 83.9292 192.519 85.1231 192.519 86.5959C192.519 88.0686 193.713 89.2625 195.186 89.2625ZM195.686 96.3039L195.686 86.5959L194.686 86.5959L194.686 96.3039L195.686 96.3039Z" fill="#E2E2E2"/>
<path d="M195.186 79.5545C196.658 79.5545 197.852 78.3606 197.852 76.8878C197.852 75.4151 196.658 74.2212 195.186 74.2212C193.713 74.2212 192.519 75.4151 192.519 76.8878C192.519 78.3606 193.713 79.5545 195.186 79.5545ZM195.686 86.5959L195.686 76.8878L194.686 76.8878L194.686 86.5959L195.686 86.5959Z" fill="#E2E2E2"/>
<path d="M195.186 69.4581C196.658 69.4581 197.852 68.2642 197.852 66.7914C197.852 65.3187 196.658 64.1248 195.186 64.1248C193.713 64.1248 192.519 65.3187 192.519 66.7914C192.519 68.2642 193.713 69.4581 195.186 69.4581ZM195.686 76.4995L195.686 66.7914L194.686 66.7914L194.686 76.4995L195.686 76.4995Z" fill="#E2E2E2"/>
<path d="M195.186 59.7501C196.658 59.7501 197.852 58.5561 197.852 57.0834C197.852 55.6106 196.658 54.4167 195.186 54.4167C193.713 54.4167 192.519 55.6106 192.519 57.0834C192.519 58.5561 193.713 59.7501 195.186 59.7501ZM195.686 66.7914L195.686 57.0834L194.686 57.0834L194.686 66.7914L195.686 66.7914Z" fill="#E2E2E2"/>
<path d="M151.451 89.2625C152.924 89.2625 154.118 88.0686 154.118 86.5959C154.118 85.1231 152.924 83.9292 151.451 83.9292C149.978 83.9292 148.784 85.1231 148.784 86.5959C148.784 88.0686 149.978 89.2625 151.451 89.2625ZM151.951 96.3039L151.951 86.5959L150.951 86.5959L150.951 96.3039L151.951 96.3039Z" fill="#E2E2E2"/>
<path d="M151.451 79.5545C152.924 79.5545 154.118 78.3606 154.118 76.8878C154.118 75.4151 152.924 74.2212 151.451 74.2212C149.978 74.2212 148.784 75.4151 148.784 76.8878C148.784 78.3606 149.978 79.5545 151.451 79.5545ZM151.951 86.5959L151.951 76.8878L150.951 76.8878L150.951 86.5959L151.951 86.5959Z" fill="#E2E2E2"/>
<path d="M151.451 69.4581C152.924 69.4581 154.118 68.2642 154.118 66.7914C154.118 65.3187 152.924 64.1248 151.451 64.1248C149.978 64.1248 148.784 65.3187 148.784 66.7914C148.784 68.2642 149.978 69.4581 151.451 69.4581ZM151.951 76.4995L151.951 66.7914L150.951 66.7914L150.951 76.4995L151.951 76.4995Z" fill="#E2E2E2"/>
<path d="M151.451 59.7501C152.924 59.7501 154.118 58.5561 154.118 57.0834C154.118 55.6106 152.924 54.4167 151.451 54.4167C149.978 54.4167 148.784 55.6106 148.784 57.0834C148.784 58.5561 149.978 59.7501 151.451 59.7501ZM151.951 66.7914L151.951 57.0834L150.951 57.0834L150.951 66.7914L151.951 66.7914Z" fill="#E2E2E2"/>
<path d="M206.119 89.2625C207.592 89.2625 208.786 88.0686 208.786 86.5959C208.786 85.1231 207.592 83.9292 206.119 83.9292C204.647 83.9292 203.453 85.1231 203.453 86.5959C203.453 88.0686 204.647 89.2625 206.119 89.2625ZM206.619 96.3039L206.619 86.5959L205.619 86.5959L205.619 96.3039L206.619 96.3039Z" fill="#E2E2E2"/>
<path d="M206.119 79.5545C207.592 79.5545 208.786 78.3606 208.786 76.8878C208.786 75.4151 207.592 74.2212 206.119 74.2212C204.647 74.2212 203.453 75.4151 203.453 76.8878C203.453 78.3606 204.647 79.5545 206.119 79.5545ZM206.619 86.5959L206.619 76.8878L205.619 76.8878L205.619 86.5959L206.619 86.5959Z" fill="#E2E2E2"/>
<path d="M206.119 69.4581C207.592 69.4581 208.786 68.2642 208.786 66.7914C208.786 65.3187 207.592 64.1248 206.119 64.1248C204.647 64.1248 203.453 65.3187 203.453 66.7914C203.453 68.2642 204.647 69.4581 206.119 69.4581ZM206.619 76.4995L206.619 66.7914L205.619 66.7914L205.619 76.4995L206.619 76.4995Z" fill="#E2E2E2"/>
<path d="M206.119 59.7501C207.592 59.7501 208.786 58.5561 208.786 57.0834C208.786 55.6106 207.592 54.4167 206.119 54.4167C204.647 54.4167 203.453 55.6106 203.453 57.0834C203.453 58.5561 204.647 59.7501 206.119 59.7501ZM206.619 66.7914L206.619 57.0834L205.619 57.0834L205.619 66.7914L206.619 66.7914Z" fill="#E2E2E2"/>
<path d="M162.385 89.2625C163.857 89.2625 165.051 88.0686 165.051 86.5959C165.051 85.1231 163.857 83.9292 162.385 83.9292C160.912 83.9292 159.718 85.1231 159.718 86.5959C159.718 88.0686 160.912 89.2625 162.385 89.2625ZM162.885 96.3039L162.885 86.5959L161.885 86.5959L161.885 96.3039L162.885 96.3039Z" fill="#E2E2E2"/>
<path d="M162.385 79.5545C163.857 79.5545 165.051 78.3606 165.051 76.8878C165.051 75.4151 163.857 74.2212 162.385 74.2212C160.912 74.2212 159.718 75.4151 159.718 76.8878C159.718 78.3606 160.912 79.5545 162.385 79.5545ZM162.885 86.5959L162.885 76.8878L161.885 76.8878L161.885 86.5959L162.885 86.5959Z" fill="#E2E2E2"/>
<path d="M162.385 69.4581C163.857 69.4581 165.051 68.2642 165.051 66.7914C165.051 65.3187 163.857 64.1248 162.385 64.1248C160.912 64.1248 159.718 65.3187 159.718 66.7914C159.718 68.2642 160.912 69.4581 162.385 69.4581ZM162.885 76.4995L162.885 66.7914L161.885 66.7914L161.885 76.4995L162.885 76.4995Z" fill="#E2E2E2"/>
<path d="M162.385 59.7501C163.857 59.7501 165.051 58.5561 165.051 57.0834C165.051 55.6106 163.857 54.4167 162.385 54.4167C160.912 54.4167 159.718 55.6106 159.718 57.0834C159.718 58.5561 160.912 59.7501 162.385 59.7501ZM162.885 66.7914L162.885 57.0834L161.885 57.0834L161.885 66.7914L162.885 66.7914Z" fill="#E2E2E2"/>
<path d="M217.053 89.2625C218.526 89.2625 219.72 88.0686 219.72 86.5959C219.72 85.1231 218.526 83.9292 217.053 83.9292C215.58 83.9292 214.386 85.1231 214.386 86.5959C214.386 88.0686 215.58 89.2625 217.053 89.2625ZM217.553 96.3039L217.553 86.5959L216.553 86.5959L216.553 96.3039L217.553 96.3039Z" fill="#E2E2E2"/>
<path d="M217.053 79.5545C218.526 79.5545 219.72 78.3606 219.72 76.8878C219.72 75.4151 218.526 74.2212 217.053 74.2212C215.58 74.2212 214.386 75.4151 214.386 76.8878C214.386 78.3606 215.58 79.5545 217.053 79.5545ZM217.553 86.5959L217.553 76.8878L216.553 76.8878L216.553 86.5959L217.553 86.5959Z" fill="#E2E2E2"/>
<path d="M217.053 69.4581C218.526 69.4581 219.72 68.2642 219.72 66.7914C219.72 65.3187 218.526 64.1248 217.053 64.1248C215.58 64.1248 214.386 65.3187 214.386 66.7914C214.386 68.2642 215.58 69.4581 217.053 69.4581ZM217.553 76.4995L217.553 66.7914L216.553 66.7914L216.553 76.4995L217.553 76.4995Z" fill="#E2E2E2"/>
<path d="M217.053 59.7501C218.526 59.7501 219.72 58.5561 219.72 57.0834C219.72 55.6106 218.526 54.4167 217.053 54.4167C215.58 54.4167 214.386 55.6106 214.386 57.0834C214.386 58.5561 215.58 59.7501 217.053 59.7501ZM217.553 66.7914L217.553 57.0834L216.553 57.0834L216.553 66.7914L217.553 66.7914Z" fill="#E2E2E2"/>
<path d="M173.318 89.2625C174.791 89.2625 175.985 88.0686 175.985 86.5959C175.985 85.1231 174.791 83.9292 173.318 83.9292C171.846 83.9292 170.652 85.1231 170.652 86.5959C170.652 88.0686 171.846 89.2625 173.318 89.2625ZM173.818 96.3039L173.818 86.5959L172.818 86.5959L172.818 96.3039L173.818 96.3039Z" fill="#E2E2E2"/>
<path d="M173.318 79.5545C174.791 79.5545 175.985 78.3606 175.985 76.8878C175.985 75.4151 174.791 74.2212 173.318 74.2212C171.846 74.2212 170.652 75.4151 170.652 76.8878C170.652 78.3606 171.846 79.5545 173.318 79.5545ZM173.818 86.5959L173.818 76.8878L172.818 76.8878L172.818 86.5959L173.818 86.5959Z" fill="#E2E2E2"/>
<path d="M173.318 69.4581C174.791 69.4581 175.985 68.2642 175.985 66.7914C175.985 65.3187 174.791 64.1248 173.318 64.1248C171.846 64.1248 170.652 65.3187 170.652 66.7914C170.652 68.2642 171.846 69.4581 173.318 69.4581ZM173.818 76.4995L173.818 66.7914L172.818 66.7914L172.818 76.4995L173.818 76.4995Z" fill="#E2E2E2"/>
<path d="M173.318 59.7501C174.791 59.7501 175.985 58.5561 175.985 57.0834C175.985 55.6106 174.791 54.4167 173.318 54.4167C171.846 54.4167 170.652 55.6106 170.652 57.0834C170.652 58.5561 171.846 59.7501 173.318 59.7501ZM173.818 66.7914L173.818 57.0834L172.818 57.0834L172.818 66.7914L173.818 66.7914Z" fill="#E2E2E2"/>
<path d="M227.986 89.2625C229.459 89.2625 230.653 88.0686 230.653 86.5959C230.653 85.1231 229.459 83.9292 227.986 83.9292C226.514 83.9292 225.32 85.1231 225.32 86.5959C225.32 88.0686 226.514 89.2625 227.986 89.2625ZM228.486 96.3039L228.486 86.5959L227.486 86.5959L227.486 96.3039L228.486 96.3039Z" fill="#E2E2E2"/>
<path d="M227.986 79.5545C229.459 79.5545 230.653 78.3606 230.653 76.8878C230.653 75.4151 229.459 74.2212 227.986 74.2212C226.514 74.2212 225.32 75.4151 225.32 76.8878C225.32 78.3606 226.514 79.5545 227.986 79.5545ZM228.486 86.5959L228.486 76.8878L227.486 76.8878L227.486 86.5959L228.486 86.5959Z" fill="#E2E2E2"/>
<path d="M227.986 69.4581C229.459 69.4581 230.653 68.2642 230.653 66.7914C230.653 65.3187 229.459 64.1248 227.986 64.1248C226.514 64.1248 225.32 65.3187 225.32 66.7914C225.32 68.2642 226.514 69.4581 227.986 69.4581ZM228.486 76.4995L228.486 66.7914L227.486 66.7914L227.486 76.4995L228.486 76.4995Z" fill="#E2E2E2"/>
<path d="M227.986 59.7501C229.459 59.7501 230.653 58.5561 230.653 57.0834C230.653 55.6106 229.459 54.4167 227.986 54.4167C226.514 54.4167 225.32 55.6106 225.32 57.0834C225.32 58.5561 226.514 59.7501 227.986 59.7501ZM228.486 66.7914L228.486 57.0834L227.486 57.0834L227.486 66.7914L228.486 66.7914Z" fill="#E2E2E2"/>
<path d="M184.252 89.2625C185.725 89.2625 186.919 88.0686 186.919 86.5959C186.919 85.1231 185.725 83.9292 184.252 83.9292C182.779 83.9292 181.585 85.1231 181.585 86.5959C181.585 88.0686 182.779 89.2625 184.252 89.2625ZM184.752 96.3039L184.752 86.5959L183.752 86.5959L183.752 96.3039L184.752 96.3039Z" fill="#E2E2E2"/>
<path d="M184.252 79.5545C185.725 79.5545 186.919 78.3606 186.919 76.8878C186.919 75.4151 185.725 74.2212 184.252 74.2212C182.779 74.2212 181.585 75.4151 181.585 76.8878C181.585 78.3606 182.779 79.5545 184.252 79.5545ZM184.752 86.5959L184.752 76.8878L183.752 76.8878L183.752 86.5959L184.752 86.5959Z" fill="#E2E2E2"/>
<path d="M184.252 69.4581C185.725 69.4581 186.919 68.2642 186.919 66.7914C186.919 65.3187 185.725 64.1248 184.252 64.1248C182.779 64.1248 181.585 65.3187 181.585 66.7914C181.585 68.2642 182.779 69.4581 184.252 69.4581ZM184.752 76.4995L184.752 66.7914L183.752 66.7914L183.752 76.4995L184.752 76.4995Z" fill="#E2E2E2"/>
<path d="M184.252 59.7501C185.725 59.7501 186.919 58.5561 186.919 57.0834C186.919 55.6106 185.725 54.4167 184.252 54.4167C182.779 54.4167 181.585 55.6106 181.585 57.0834C181.585 58.5561 182.779 59.7501 184.252 59.7501ZM184.752 66.7914L184.752 57.0834L183.752 57.0834L183.752 66.7914L184.752 66.7914Z" fill="#E2E2E2"/>
<path d="M238.92 89.2625C240.393 89.2625 241.587 88.0686 241.587 86.5959C241.587 85.1231 240.393 83.9292 238.92 83.9292C237.447 83.9292 236.253 85.1231 236.253 86.5959C236.253 88.0686 237.447 89.2625 238.92 89.2625ZM239.42 96.3039L239.42 86.5959L238.42 86.5959L238.42 96.3039L239.42 96.3039Z" fill="#E2E2E2"/>
<path d="M238.92 79.5545C240.393 79.5545 241.587 78.3606 241.587 76.8878C241.587 75.4151 240.393 74.2212 238.92 74.2212C237.447 74.2212 236.253 75.4151 236.253 76.8878C236.253 78.3606 237.447 79.5545 238.92 79.5545ZM239.42 86.5959L239.42 76.8878L238.42 76.8878L238.42 86.5959L239.42 86.5959Z" fill="#E2E2E2"/>
<path d="M238.92 69.4581C240.393 69.4581 241.587 68.2642 241.587 66.7914C241.587 65.3187 240.393 64.1248 238.92 64.1248C237.447 64.1248 236.253 65.3187 236.253 66.7914C236.253 68.2642 237.447 69.4581 238.92 69.4581ZM239.42 76.4995L239.42 66.7914L238.42 66.7914L238.42 76.4995L239.42 76.4995Z" fill="#E2E2E2"/>
<path d="M238.92 59.7501C240.393 59.7501 241.587 58.5561 241.587 57.0834C241.587 55.6106 240.393 54.4167 238.92 54.4167C237.447 54.4167 236.253 55.6106 236.253 57.0834C236.253 58.5561 237.447 59.7501 238.92 59.7501ZM239.42 66.7914L239.42 57.0834L238.42 57.0834L238.42 66.7914L239.42 66.7914Z" fill="#E2E2E2"/>
<path d="M17.2148 177.934L121.89 4.07595L226.565 177.934H17.2148Z" stroke="#E5E5E5"/>
</svg>
