<svg width="889" height="842" viewBox="0 0 889 842" fill="none" xmlns="http://www.w3.org/2000/svg">
<rect x="48" width="841" height="842" fill="white"/>
<line x1="756.354" y1="118.354" x2="476.354" y2="398.354" stroke="#E2E2E2"/>
<line x1="812.354" y1="182.354" x2="532.354" y2="462.354" stroke="#E2E2E2"/>
<line x1="857.354" y1="258.354" x2="577.354" y2="538.354" stroke="#E2E2E2"/>
<path d="M347 225.667C348.473 225.667 349.667 224.473 349.667 223C349.667 221.527 348.473 220.333 347 220.333C345.527 220.333 344.333 221.527 344.333 223C344.333 224.473 345.527 225.667 347 225.667ZM347.5 248L347.5 223L346.5 223L346.5 248L347.5 248Z" fill="#E2E2E2"/>
<path d="M347 200.667C348.473 200.667 349.667 199.473 349.667 198C349.667 196.527 348.473 195.333 347 195.333C345.527 195.333 344.333 196.527 344.333 198C344.333 199.473 345.527 200.667 347 200.667ZM347.5 223L347.5 198L346.5 198L346.5 223L347.5 223Z" fill="#E2E2E2"/>
<path d="M347 174.667C348.473 174.667 349.667 173.473 349.667 172C349.667 170.527 348.473 169.333 347 169.333C345.527 169.333 344.333 170.527 344.333 172C344.333 173.473 345.527 174.667 347 174.667ZM347.5 197L347.5 172L346.5 172L346.5 197L347.5 197Z" fill="#E2E2E2"/>
<path d="M347 149.667C348.473 149.667 349.667 148.473 349.667 147C349.667 145.527 348.473 144.333 347 144.333C345.527 144.333 344.333 145.527 344.333 147C344.333 148.473 345.527 149.667 347 149.667ZM347.5 172L347.5 147L346.5 147L346.5 172L347.5 172Z" fill="#E2E2E2"/>
<path d="M482 225.667C483.473 225.667 484.667 224.473 484.667 223C484.667 221.527 483.473 220.333 482 220.333C480.527 220.333 479.333 221.527 479.333 223C479.333 224.473 480.527 225.667 482 225.667ZM482.5 248L482.5 223L481.5 223L481.5 248L482.5 248Z" fill="#E2E2E2"/>
<path d="M482 200.667C483.473 200.667 484.667 199.473 484.667 198C484.667 196.527 483.473 195.333 482 195.333C480.527 195.333 479.333 196.527 479.333 198C479.333 199.473 480.527 200.667 482 200.667ZM482.5 223L482.5 198L481.5 198L481.5 223L482.5 223Z" fill="#E2E2E2"/>
<path d="M482 174.667C483.473 174.667 484.667 173.473 484.667 172C484.667 170.527 483.473 169.333 482 169.333C480.527 169.333 479.333 170.527 479.333 172C479.333 173.473 480.527 174.667 482 174.667ZM482.5 197L482.5 172L481.5 172L481.5 197L482.5 197Z" fill="#E2E2E2"/>
<path d="M482 149.667C483.473 149.667 484.667 148.473 484.667 147C484.667 145.527 483.473 144.333 482 144.333C480.527 144.333 479.333 145.527 479.333 147C479.333 148.473 480.527 149.667 482 149.667ZM482.5 172L482.5 147L481.5 147L481.5 172L482.5 172Z" fill="#E2E2E2"/>
<path d="M374 225.667C375.473 225.667 376.667 224.473 376.667 223C376.667 221.527 375.473 220.333 374 220.333C372.527 220.333 371.333 221.527 371.333 223C371.333 224.473 372.527 225.667 374 225.667ZM374.5 248L374.5 223L373.5 223L373.5 248L374.5 248Z" fill="#E2E2E2"/>
<path d="M374 200.667C375.473 200.667 376.667 199.473 376.667 198C376.667 196.527 375.473 195.333 374 195.333C372.527 195.333 371.333 196.527 371.333 198C371.333 199.473 372.527 200.667 374 200.667ZM374.5 223L374.5 198L373.5 198L373.5 223L374.5 223Z" fill="#E2E2E2"/>
<path d="M374 174.667C375.473 174.667 376.667 173.473 376.667 172C376.667 170.527 375.473 169.333 374 169.333C372.527 169.333 371.333 170.527 371.333 172C371.333 173.473 372.527 174.667 374 174.667ZM374.5 197L374.5 172L373.5 172L373.5 197L374.5 197Z" fill="#E2E2E2"/>
<path d="M374 149.667C375.473 149.667 376.667 148.473 376.667 147C376.667 145.527 375.473 144.333 374 144.333C372.527 144.333 371.333 145.527 371.333 147C371.333 148.473 372.527 149.667 374 149.667ZM374.5 172L374.5 147L373.5 147L373.5 172L374.5 172Z" fill="#E2E2E2"/>
<path d="M509 225.667C510.473 225.667 511.667 224.473 511.667 223C511.667 221.527 510.473 220.333 509 220.333C507.527 220.333 506.333 221.527 506.333 223C506.333 224.473 507.527 225.667 509 225.667ZM509.5 248L509.5 223L508.5 223L508.5 248L509.5 248Z" fill="#E2E2E2"/>
<path d="M509 200.667C510.473 200.667 511.667 199.473 511.667 198C511.667 196.527 510.473 195.333 509 195.333C507.527 195.333 506.333 196.527 506.333 198C506.333 199.473 507.527 200.667 509 200.667ZM509.5 223L509.5 198L508.5 198L508.5 223L509.5 223Z" fill="#E2E2E2"/>
<path d="M509 174.667C510.473 174.667 511.667 173.473 511.667 172C511.667 170.527 510.473 169.333 509 169.333C507.527 169.333 506.333 170.527 506.333 172C506.333 173.473 507.527 174.667 509 174.667ZM509.5 197L509.5 172L508.5 172L508.5 197L509.5 197Z" fill="#E2E2E2"/>
<path d="M509 149.667C510.473 149.667 511.667 148.473 511.667 147C511.667 145.527 510.473 144.333 509 144.333C507.527 144.333 506.333 145.527 506.333 147C506.333 148.473 507.527 149.667 509 149.667ZM509.5 172L509.5 147L508.5 147L508.5 172L509.5 172Z" fill="#E2E2E2"/>
<path d="M401 225.667C402.473 225.667 403.667 224.473 403.667 223C403.667 221.527 402.473 220.333 401 220.333C399.527 220.333 398.333 221.527 398.333 223C398.333 224.473 399.527 225.667 401 225.667ZM401.5 248L401.5 223L400.5 223L400.5 248L401.5 248Z" fill="#E2E2E2"/>
<path d="M401 200.667C402.473 200.667 403.667 199.473 403.667 198C403.667 196.527 402.473 195.333 401 195.333C399.527 195.333 398.333 196.527 398.333 198C398.333 199.473 399.527 200.667 401 200.667ZM401.5 223L401.5 198L400.5 198L400.5 223L401.5 223Z" fill="#E2E2E2"/>
<path d="M401 174.667C402.473 174.667 403.667 173.473 403.667 172C403.667 170.527 402.473 169.333 401 169.333C399.527 169.333 398.333 170.527 398.333 172C398.333 173.473 399.527 174.667 401 174.667ZM401.5 197L401.5 172L400.5 172L400.5 197L401.5 197Z" fill="#E2E2E2"/>
<path d="M401 149.667C402.473 149.667 403.667 148.473 403.667 147C403.667 145.527 402.473 144.333 401 144.333C399.527 144.333 398.333 145.527 398.333 147C398.333 148.473 399.527 149.667 401 149.667ZM401.5 172L401.5 147L400.5 147L400.5 172L401.5 172Z" fill="#E2E2E2"/>
<path d="M536 225.667C537.473 225.667 538.667 224.473 538.667 223C538.667 221.527 537.473 220.333 536 220.333C534.527 220.333 533.333 221.527 533.333 223C533.333 224.473 534.527 225.667 536 225.667ZM536.5 248L536.5 223L535.5 223L535.5 248L536.5 248Z" fill="#E2E2E2"/>
<path d="M536 200.667C537.473 200.667 538.667 199.473 538.667 198C538.667 196.527 537.473 195.333 536 195.333C534.527 195.333 533.333 196.527 533.333 198C533.333 199.473 534.527 200.667 536 200.667ZM536.5 223L536.5 198L535.5 198L535.5 223L536.5 223Z" fill="#E2E2E2"/>
<path d="M536 174.667C537.473 174.667 538.667 173.473 538.667 172C538.667 170.527 537.473 169.333 536 169.333C534.527 169.333 533.333 170.527 533.333 172C533.333 173.473 534.527 174.667 536 174.667ZM536.5 197L536.5 172L535.5 172L535.5 197L536.5 197Z" fill="#E2E2E2"/>
<path d="M536 149.667C537.473 149.667 538.667 148.473 538.667 147C538.667 145.527 537.473 144.333 536 144.333C534.527 144.333 533.333 145.527 533.333 147C533.333 148.473 534.527 149.667 536 149.667ZM536.5 172L536.5 147L535.5 147L535.5 172L536.5 172Z" fill="#E2E2E2"/>
<path d="M428 225.667C429.473 225.667 430.667 224.473 430.667 223C430.667 221.527 429.473 220.333 428 220.333C426.527 220.333 425.333 221.527 425.333 223C425.333 224.473 426.527 225.667 428 225.667ZM428.5 248L428.5 223L427.5 223L427.5 248L428.5 248Z" fill="#E2E2E2"/>
<path d="M428 200.667C429.473 200.667 430.667 199.473 430.667 198C430.667 196.527 429.473 195.333 428 195.333C426.527 195.333 425.333 196.527 425.333 198C425.333 199.473 426.527 200.667 428 200.667ZM428.5 223L428.5 198L427.5 198L427.5 223L428.5 223Z" fill="#E2E2E2"/>
<path d="M428 174.667C429.473 174.667 430.667 173.473 430.667 172C430.667 170.527 429.473 169.333 428 169.333C426.527 169.333 425.333 170.527 425.333 172C425.333 173.473 426.527 174.667 428 174.667ZM428.5 197L428.5 172L427.5 172L427.5 197L428.5 197Z" fill="#E2E2E2"/>
<path d="M428 149.667C429.473 149.667 430.667 148.473 430.667 147C430.667 145.527 429.473 144.333 428 144.333C426.527 144.333 425.333 145.527 425.333 147C425.333 148.473 426.527 149.667 428 149.667ZM428.5 172L428.5 147L427.5 147L427.5 172L428.5 172Z" fill="#E2E2E2"/>
<path d="M563 225.667C564.473 225.667 565.667 224.473 565.667 223C565.667 221.527 564.473 220.333 563 220.333C561.527 220.333 560.333 221.527 560.333 223C560.333 224.473 561.527 225.667 563 225.667ZM563.5 248L563.5 223L562.5 223L562.5 248L563.5 248Z" fill="#E2E2E2"/>
<path d="M563 200.667C564.473 200.667 565.667 199.473 565.667 198C565.667 196.527 564.473 195.333 563 195.333C561.527 195.333 560.333 196.527 560.333 198C560.333 199.473 561.527 200.667 563 200.667ZM563.5 223L563.5 198L562.5 198L562.5 223L563.5 223Z" fill="#E2E2E2"/>
<path d="M563 174.667C564.473 174.667 565.667 173.473 565.667 172C565.667 170.527 564.473 169.333 563 169.333C561.527 169.333 560.333 170.527 560.333 172C560.333 173.473 561.527 174.667 563 174.667ZM563.5 197L563.5 172L562.5 172L562.5 197L563.5 197Z" fill="#E2E2E2"/>
<path d="M563 149.667C564.473 149.667 565.667 148.473 565.667 147C565.667 145.527 564.473 144.333 563 144.333C561.527 144.333 560.333 145.527 560.333 147C560.333 148.473 561.527 149.667 563 149.667ZM563.5 172L563.5 147L562.5 147L562.5 172L563.5 172Z" fill="#E2E2E2"/>
<path d="M455 225.667C456.473 225.667 457.667 224.473 457.667 223C457.667 221.527 456.473 220.333 455 220.333C453.527 220.333 452.333 221.527 452.333 223C452.333 224.473 453.527 225.667 455 225.667ZM455.5 248L455.5 223L454.5 223L454.5 248L455.5 248Z" fill="#E2E2E2"/>
<path d="M455 200.667C456.473 200.667 457.667 199.473 457.667 198C457.667 196.527 456.473 195.333 455 195.333C453.527 195.333 452.333 196.527 452.333 198C452.333 199.473 453.527 200.667 455 200.667ZM455.5 223L455.5 198L454.5 198L454.5 223L455.5 223Z" fill="#E2E2E2"/>
<path d="M455 174.667C456.473 174.667 457.667 173.473 457.667 172C457.667 170.527 456.473 169.333 455 169.333C453.527 169.333 452.333 170.527 452.333 172C452.333 173.473 453.527 174.667 455 174.667ZM455.5 197L455.5 172L454.5 172L454.5 197L455.5 197Z" fill="#E2E2E2"/>
<path d="M455 149.667C456.473 149.667 457.667 148.473 457.667 147C457.667 145.527 456.473 144.333 455 144.333C453.527 144.333 452.333 145.527 452.333 147C452.333 148.473 453.527 149.667 455 149.667ZM455.5 172L455.5 147L454.5 147L454.5 172L455.5 172Z" fill="#E2E2E2"/>
<path d="M590 225.667C591.473 225.667 592.667 224.473 592.667 223C592.667 221.527 591.473 220.333 590 220.333C588.527 220.333 587.333 221.527 587.333 223C587.333 224.473 588.527 225.667 590 225.667ZM590.5 248L590.5 223L589.5 223L589.5 248L590.5 248Z" fill="#E2E2E2"/>
<path d="M590 200.667C591.473 200.667 592.667 199.473 592.667 198C592.667 196.527 591.473 195.333 590 195.333C588.527 195.333 587.333 196.527 587.333 198C587.333 199.473 588.527 200.667 590 200.667ZM590.5 223L590.5 198L589.5 198L589.5 223L590.5 223Z" fill="#E2E2E2"/>
<path d="M590 174.667C591.473 174.667 592.667 173.473 592.667 172C592.667 170.527 591.473 169.333 590 169.333C588.527 169.333 587.333 170.527 587.333 172C587.333 173.473 588.527 174.667 590 174.667ZM590.5 197L590.5 172L589.5 172L589.5 197L590.5 197Z" fill="#E2E2E2"/>
<path d="M590 149.667C591.473 149.667 592.667 148.473 592.667 147C592.667 145.527 591.473 144.333 590 144.333C588.527 144.333 587.333 145.527 587.333 147C587.333 148.473 588.527 149.667 590 149.667ZM590.5 172L590.5 147L589.5 147L589.5 172L590.5 172Z" fill="#E2E2E2"/>
<path d="M41.1924 459L301 9L560.808 459H41.1924Z" stroke="#E5E5E5"/>
</svg>
